<?xml version="1.0" encoding="utf-8"?>
<!-- Generator: Adobe Illustrator 24.0.3, SVG Export Plug-In . SVG Version: 6.00 Build 0)  -->
<!DOCTYPE svg PUBLIC "-//W3C//DTD SVG 1.1//EN" "http://www.w3.org/Graphics/SVG/1.1/DTD/svg11.dtd" [
	<!ENTITY st0 "fill:#191716;">
	<!ENTITY st1 "fill:#F7E5C8;">
	<!ENTITY st2 "fill:#645344;">
	<!ENTITY st3 "fill:#E69905;">
	<!ENTITY st4 "fill:#B46E04;">
	<!ENTITY st5 "fill:#FEFEFE;">
	<!ENTITY st6 "fill:#EFFCEF;">
	<!ENTITY st7 "fill:#CCEDD2;">
	<!ENTITY st8 "fill:#94D3AC;">
	<!ENTITY st9 "fill:#655C56;">
	<!ENTITY st10 "fill:#DFD3C3;">
	<!ENTITY st11 "fill:#C7B198;">
	<!ENTITY st12 "fill:#323232;">
	<!ENTITY st13 "fill:#2CC185;">
	<!ENTITY st14 "fill:#26E196;">
	<!ENTITY st15 "fill:#43F6AE;">
	<!ENTITY st16 "fill:#614092;">
	<!ENTITY st17 "fill:#596E79;">
]>
<svg version="1.1" id="Layer_1" xmlns="http://www.w3.org/2000/svg" xmlns:xlink="http://www.w3.org/1999/xlink" x="0px" y="0px"
	 viewBox="0 0 272.3 72" style="enable-background:new 0 0 272.3 72;" xml:space="preserve">
<path style="&st0;" d="M46.4,54.8c0.3,1.2,0.8,2.3,1.6,3.3c0.7,1,1.4,2,2,3.1c0.5,0.9,0.7,1.9,0.6,3c-0.1,0.9-0.7,1.3-1.4,1.6
	c-0.3,0.1-0.6,0.2-0.7,0.7c-0.3,1.5-1.3,2.4-2.9,2.5c-0.2,0-0.3,0-0.5,0c-0.8-0.1-1.5,0-2.2,0.5c-1,0.6-2.2,0.4-3.2-0.2
	c-0.4-0.2-0.7-0.5-1.1-0.7c-1.1,2.6-3.2,3.7-5.7,3.6c-2.6-0.1-5-1.1-5.9-4c-1.1,1.5-2.3,2.6-4.3,2.2c-1.9-0.3-3.7-0.9-4.5-2.9
	c-0.1-0.3-0.2-0.4-0.5-0.4c-1.1,0-2.1-0.1-2.9-0.9c-0.2-0.2-0.3-0.2-0.5-0.1c-1.2,0.4-1.9-0.2-2.6-1.1c-0.2-0.2-0.2-0.6-0.7-0.5
	c-2,0.4-3.9-1.8-3-4.2c0.6-1.6,1.7-3,2.9-4.2c1-1,1.8-2.1,2.6-3.2c0.2-0.3,0.6-0.7,0.2-1c-0.3-0.2-0.5,0.2-0.7,0.5
	c-1.7,2.1-3.9,2-5.6,1.4c-2.4-0.8-3.5-3-3.1-5.5c0.2-1,0.4-1.9,1.1-2.6c0.5-0.6,0.5-1.2,0.4-1.8c-0.4-2.2,0-2.8,1.8-3.7
	c-1.2-1.7-0.6-3.5-0.2-5.2c0.1-0.3,0.2-0.7,0.3-1c1-2,1-4.2,1-6.3c0-0.9,0-1.8,0.9-2.3c0.3-0.2,0.2-0.4,0.2-0.6
	c-0.7-4,0.2-7.6,2.4-10.9c2-3,4-6,6.7-8.4c4.3-3.8,9.4-5.7,15.2-5.2c3.1,0.2,6.3,0.5,9.1,2.2c6.9,4.2,12.2,9.9,14.7,17.8
	c0.8,2.7,0.8,5.5,0.6,8.2c-0.1,1.6-0.2,3.2-0.7,4.8c-1,3.2-2.9,5.6-5.6,7.4c-0.7,0.5-0.8,0.9-0.5,1.6C52.5,44,53,46,52.5,48
	c-0.2,0.9-0.3,1.8-0.6,2.6C51,53.1,49.2,54.4,46.4,54.8z M50.8,33.7c-0.4,0-0.6,0.3-0.8,0.6c-0.8,0.6-2,0.5-2.7,1.4
	c1-0.3,2.2-0.3,2.7-1.4C50.5,34.4,50.7,34.2,50.8,33.7c0.1-0.1,0.1-0.1,0.2-0.2c1.5-0.8,1.6-2.3,1.8-3.7c0.2-1-0.2-2-0.6-2.9
	c-0.6-1.4-1.7-1.9-3.3-1.6c-0.4,0.1-0.8,0.3-1.4,0.2c0.8-0.5,1.4-0.9,2-1.4c-1-1.5-2-3.1-2.7-4.7c-0.9-2-2.2-3.6-4-4.9
	c-2.4-1.7-4.8-3.2-7.7-3.7c-1.4-0.2-2.8-0.2-4.2-0.4c0.2-0.6,0.1-0.8-0.5-1.3c-1.4-1-3.1-0.7-4.7-0.7c-1.4,0-2.4,0.6-3.4,1.6
	c-2,2.1-2.1,4.8-2.4,7.5c1.2-1.9,1.2-4,1.9-5.9l0,0c0.4-0.5,0.8-1.1,1.3-1.6c1-1.2,2.7-1.7,3.9-1.3c1,0.3,2.2,2,2.1,3.6
	c-0.4-0.5-0.7-1-1-1.4c-0.9-1.2-1.7-1.4-3-0.9c-0.7,0.3-1.2,0.8-1.6,1.5c-0.2,0.3-0.7,0.6-0.4,0.9c0.2,0.3,0.6-0.2,0.9-0.2
	c0.1,0,0.2,0,0.3,0.1c-0.4,0.4-0.8,0.7-1.1,1.1c-1.5,2.8-3,5.7-3.6,8.9c-0.6,2.8-0.2,4.3,3,5.4c0.3,0.1,0.7,0.2,1,0.2
	c2.6,0.5,4.5-0.6,5.2-3c0.1-0.2,0.2-0.3,0.3-0.6c0.2,1.2-0.1,2.1-0.6,2.9c-0.5,0.9-1.4,1.3-2.2,1.8c-1.8,0.2-3.5-0.3-5.3-0.7
	c0,0,0-0.1,0-0.1c0,0,0,0-0.1,0c0,0,0.1,0.1,0.1,0.1c0.5,1.3,1.8,1.9,2.7,2.9c0.7,0.7,1.5,1.3,2.2,2c1.2,1.1,2.5,2.2,3.3,3.7
	c0.5,0.9,0.7,1.9,1.1,2.8c1.4-1,2.9-1.4,4.6-1.2c-0.3-0.3-0.6-0.5-1-0.7c-0.8-0.5-1.5-1.2-1.6-2.1c-0.4-2.7,0.1-5.1,2-7.4
	c0,0.4,0,0.7,0,1c-0.8,2-1.1,4-0.9,6.1c0,0.4,0.3,0.8,0.7,1.1c2.7,2.3,6.5,2.6,9.5,0.8c1.3-0.8,2.5-1.7,3.4-2.9
	c0.1-0.1,0.3-0.6,0.5-0.2c0.3,0.6,0.5,0.2,0.7,0.1c0.9-0.7,1.8-1.5,2.2-2.7c0.6-1.6,0.3-4.5-1.8-4.9c0.2-0.4,0.5-0.2,0.8-0.2
	c1.4,0.3,2.3,1.6,2.5,3.3c0.1,1.4-0.5,2.5-1.2,3.6C50.9,33.6,50.9,33.7,50.8,33.7z M6.8,46.4c-0.3-0.2-0.4-0.6-0.9-0.6
	C6.1,46.2,6.4,46.4,6.8,46.4C7.1,46.8,7.6,46.8,8,47c0.3,0.2,0.5,0,0.6-0.2c0.1-0.4-0.2-0.4-0.4-0.4C7.7,46.4,7.3,46.4,6.8,46.4z
	 M16.1,21.3c0.2-1,0.3-1.9,0-2.9c0-0.6-0.1-1.3-0.5-1.8c-1.6,2.5-3,5.4-2.4,6.7c0.7-0.8,1.6-1.3,2.6-1.7
	C15.9,21.6,16,21.4,16.1,21.3z M12.1,46.8c-0.1-0.2-0.1-0.6-0.4-0.5c-0.4,0.1-0.7,0.3-0.9,0.8C11.3,47.3,11.6,46.5,12.1,46.8
	c-0.3,0.5-1,0.5-1.1,1c-0.2,1-0.3,2.1-0.2,3.1c0,0.6-0.1,1-0.7,1.1c-0.7,0.1-1-0.4-1.1-1c0-0.3,0-0.7,0-1c-0.2,0.3-0.4,0.7-0.5,1.1
	c-0.1,0.2,0,0.6-0.4,0.6c-0.4,0-0.7-0.2-0.8-0.5c-0.2-0.3-0.1-0.6,0-0.8c0.1-1,0.4-1.9,1-2.8c-1-0.1-1.7-0.6-2.6-1.1
	c-0.5,1.4-0.5,2.8-0.1,4.2c0.2,0.7,0.6,1.3,1.2,1.6c1.7,1.1,3.5,1.1,5.3,0.2c1.2-0.6,1.5-1.3,1.3-2.6c-0.1-0.8-0.1-1.5-0.1-2.3
	C13.3,46.9,12.8,46.6,12.1,46.8z M18.5,62.6c0.7-1.4,1.6-2.6,2.5-3.7c0.3-0.4,0.3-0.6-0.3-0.9c-0.9-0.3-1.7-0.8-2.5-1.3
	c-1.5-0.9-2.7-2.2-3.8-3.7c-0.7,1-1.2,1.9-1.8,2.7c-0.6,0.9-1.5,1.6-2.2,2.4C9.7,59,9,59.8,8.8,60.9c-0.3,1.3,0.7,2.5,1.9,2.3
	c1.1-0.2,1.7,0,2.1,1c0.2,0.4,0.6,0.7,1.2,0.4c0.7-0.5,1.1-0.2,1.4,0.5c0.3,0.8,0.9,1.2,1.6,1.3c0.4,0.1,0.9,0.1,0.9-0.5
	C17.8,64.7,18.3,63.7,18.5,62.6L18.5,62.6z M28.4,7.3c1.3,0.4,2.2,1.2,3,2.1c0.3,0.3,0.5,0.4,1,0.4c1-0.1,1.9-0.3,2.9-0.2
	c1.9,0.3,3.5,1.1,5,2.1c2.3,1.3,4.6,2.7,6.1,4.9c1.5,2.1,2.4,4.5,3.6,6.8c0.1,0.3,0.2,0.6,0.6,0.7c2.1,0.4,2.9,2,3.3,3.9
	c0.2,1.2,0.3,2.4,0.1,3.5c0.6-1,0.9-2.1,1-3.2c0.4-3.9-0.5-7.4-2.5-10.7c-1.8-3-4-5.5-6.8-7.6c-3.3-2.6-6.7-4.8-11.2-4.9
	c-3.2-0.1-6.3,0.2-9.1,1.8C25.2,7,24.9,7,24.8,7.3C26.1,7.3,27.2,7.3,28.4,7.3z M57.6,28.1c0.3-1.6,0.3-3.2,0-4.8
	c0-1.2-0.3-2.4-0.6-3.6c-1.1-3.7-3.2-6.9-5.8-9.8c-2.6-2.9-5.3-5.4-8.8-7.2c-2.1-1.1-4.3-1.2-6.5-1.6c-2.7-0.5-5.5-0.3-8.2,0.4
	c-2.1,0.5-4.1,1.5-5.9,2.7c-2.9,2-5,4.7-7,7.5c-2.7,3.7-4.1,7.8-4,12.4c0,0.9,0.2,1.1,1.1,0.7c0.4-1,0.1-2,0.2-3
	c0.2-0.9,0.3-1.9,0.7-2.8c1.5-3.2,3.5-6,6-8.6c1.6-1.6,3.4-3,5.3-4.1c3-1.8,6.4-2.3,9.9-2.3c3.6,0,6.8,1.3,9.7,3.3
	C50,11.7,54.8,17,56,24.8c0.7,4.8-0.8,9-4.5,12.3c-1.5,1.3-1.5,1.3-0.5,2.9c0,0.1,0.1,0.1,0.1,0.2c0.2,0.3,0.2,0.3,0.5,0
	C55.3,37,57.7,33.1,57.6,28.1z M43.5,44.1c0.8-0.5,1.6-0.8,2.6-1c-1.2-0.9-1.6-1.9-1.5-3.4c-0.8,0.6-1.7,0.7-2.5,0.9
	c-0.9-0.1-1.7,0.1-2.5,0.3c-1.4,0.3-2.9,0.5-4.3,0.8c-0.7,0.1-1.6,0.1-2.3,0.4c-0.3,0.1-0.7,0.2-0.6,0.6c0.1,0.7-0.4,1-0.9,1.3
	c-0.4,0.2-0.4,0.4-0.3,0.8c0.4,1.5,1.3,2.7,2.5,3.5c2.1,1.5,2.1,1.7-0.1,3.1c-0.1,0.1-0.2,0.1-0.2,0.2c-0.3,0.2-0.6,0.2-1,0.1
	c-1.7-0.8-2.9-2.1-3.3-4c-0.1-0.7-0.3-1.3-0.4-2.1c-0.3,1.1-0.4,2-0.2,3c0.2,1.5,0.2,1.5-1.3,1.4c-0.1,0-0.1,0-0.2,0
	c-1.5-0.1-1.6-0.3-1.4-1.7c0-0.2,0.1-0.5,0.1-0.7c0.1-2.1,1.8-3.9,1.6-6.1c1-0.9,0.1-1.6-0.4-2.3c-0.3-0.5-0.6-1-1-1.5
	c-1.4-2-3.3-3.6-5.3-5c-0.1-0.4-0.5-0.6-0.7-0.9c-2-2.6-4.4-5.1-4-8.8c-1.1,0.5-1.9,1.3-2.9,2c-0.4,0.3-0.4,0.5-0.1,0.9
	c0.8,0.8,0.8,1.8,0.3,2.8c-0.2,0.3-0.4,0.7-0.5,1.1c-0.1,0.2-0.3,0.5-0.1,0.7c0.2,0.2,0.5,0,0.7,0c0.8-0.2,1.6-0.6,2.4-0.7
	c1-0.2,2,0.1,2.7,0.8c0.7,0.8,0.5,1.6,0,2.4c-0.2,0.3-0.2,0.5,0.2,0.6c-0.2,0.4,0.2,0.6,0.4,0.9c0.8,1.5,0.6,2.8-0.8,3.8
	c-0.4,0.3-0.8,0.4-1.1,0.6c-0.2,0.1-0.4,0.1-0.4,0.4c0.2,1.1-0.4,1.9-1.1,2.5c-0.3,0.3-0.4,0.5-0.4,0.9c-0.1,1.2-0.2,2.4-0.5,3.5
	c-1,3.8,0.1,6.8,3.2,9.2c2.2,1.7,4.7,2.5,7.3,3.3c5.3,1.7,10.4,1.5,15.2-1.5c1.5-0.9,2.7-2.1,3.5-3.6c0.3-0.5-0.1-2.4-0.4-2.7
	c-1.2-1-1.3-2.2-0.4-3.5c0.1-0.2,0.4-0.3,0.2-0.6C42.6,45.8,42.9,45,43.5,44.1z M38.1,65.9c0-0.1-0.1-0.4-0.1-0.7
	c-0.2-1.6-1.2-3-1.6-4.5c-0.2-0.5-0.3-0.7-1-0.6c-1.5,0.4-3.2,0.6-4.8,0.3c-0.5-0.1-0.8,0-1,0.5c-0.3,0.9-1,1.5-2,1.5
	c-1.2,0-2.4-0.8-2.5-1.9c-0.1-1.1-0.7-1.3-1.6-1.5c-0.5-0.1-0.9-0.2-1.3-0.4c-0.3-0.1-0.5,0-0.7,0.3c-0.8,1.5-1.6,2.9-2.3,4.4
	c-0.5,1-0.9,2-0.6,3.2c0.4,1.7,3.1,3.2,5,2.8c1.4-0.3,2.3-1.1,3-2.3c0.1-0.2,0.2-0.5,0.4-0.5c0.3,0,0.2,0.3,0.2,0.5
	c0.1,0.8,0.5,1.4,1.1,2c0.9,0.8,2,1.2,3,1.6C34.1,71.8,38,70.4,38.1,65.9z M44.3,53.9c-0.3,1-1,1.8-1.8,2.6c-1.2,1.2-2.6,1.9-4,2.6
	c-1.6,0.8-1.7,1.1-0.8,2.8c0,0.1,0.1,0.1,0.1,0.2c1,1.7,1.6,3.4,1.2,5.4c-0.1,0.3,0,0.5,0.2,0.7c0.9,1,3.1,0.8,3.7-0.4
	c0.3-0.6,0.7-0.7,1.3-0.3c0.9,0.6,1.9,0.5,2.7-0.1c0.3-0.3,0.7-0.7,0.5-1c-0.7-1.1,0.1-1.2,0.9-1.4c1.4-0.4,1.7-1,1.2-2.4
	c-0.3-0.8-0.8-1.6-1.3-2.3c-0.8-1.2-1.8-2.4-2-3.8C45.9,55.1,45.4,54.3,44.3,53.9z M11.6,30.7c0.3-0.9,0.6-1.7,0.9-2.5
	c0.2-0.6,0.3-1.2-0.2-1.7C11.7,26,11,26,10.4,26.2c-0.6,0.2-0.6,0.9-0.6,1.4c-0.1,1.3-0.2,2.6-0.3,3.8c-0.2,1.9-0.9,3.7-1.3,5.6
	c-0.3,1.2,0.1,2.1,1,2.8c1.1,0.9,2.5,1.3,3.9,1.5c1.4,0.2,2.4-1.2,2.1-2.5c-0.1-0.5,0-0.9,0.5-1.1c0.3-0.1,0.6-0.2,0.9-0.3
	c1.8-0.7,2.2-1.7,0.9-3.1c-0.7-0.8-0.9-1.5-0.2-2.4c0.5-0.6,0.2-1-0.5-1.2c-0.8-0.2-1.5-0.2-2.3,0C13.5,31,12.5,31,11.6,30.7z
	 M49.5,43.3c-0.1-0.5-0.2-0.9-0.3-1.4c-0.1-0.8-0.4-1.5-1-2.1c-0.5-0.5-1.7-0.7-2.3-0.3c-0.7,0.5-0.7,1.2-0.4,1.8
	c0.4,1,1.1,1.7,2.3,1.9c-0.7,0.4-1.2,0.5-1.8,0.6c-0.6,0.1-1.2,0.4-1.6,0.9c-0.6,0.5-0.5,1.1,0.2,1.5c0.3,0.2,0.6,0.3,0.6,0.8
	c-0.1,0.4-0.4,0.5-0.7,0.6c-0.5,0.2-0.9,0.5-0.9,1.1c0,0.6,0.3,0.9,0.8,1.1c0.6,0.2,0.8,0.6,0.5,1.3c-0.5,1.2,0.5,2.6,1.8,2.5
	c0.9-0.1,1.8-0.3,2.6-1c2.3-2.3,2.7-5.1,2.3-8.1c-0.3-2.1-1.3-3.9-2.2-5.8c-0.6-1.3-0.6-1.4-1.8-0.6C49.6,39.2,50.4,41.1,49.5,43.3z
	 M18.7,22.7c0-1.2,0-2,0-2.9c-0.1-1.6-0.4-3.2-1.3-4.7c-0.4-0.6-0.7-0.7-1.1,0c-0.2,0.3-0.2,0.5,0,0.8c0.3,0.4,0.4,0.9,0.5,1.4
	c0.3,1.6,0.2,3.2,0.1,4.8c-0.1,1.2-0.1,2.3,0.4,3.4c1.2,2.8,3.1,5.2,5.5,7.2c1.6,1.3,3.2,2.6,4.1,4.6c0.4,0.9,0.9,1.7,1.3,2.6
	c0.4,0.9,1.1,0.3,1.7,0.2c0.4,0,0-0.6-0.1-0.9c-0.2-0.7-0.6-1.3-1-1.9c-1.5-1.9-3.4-3.5-5.3-5.1C20.4,29.7,18.1,26.7,18.7,22.7z
	 M11.6,42.6c-0.6,2.1-2.9,2.2-4.9,1.4c-0.3,0.7-0.2,1.3,0.5,1.7c1.1,0.6,2.2,0.7,3.4,0.6c0.4,0,0.9-0.3,1-0.6
	C11.9,44.6,12.2,43.6,11.6,42.6z M29.5,45.2c0.1,0.3,0.1,0.7,0.2,1.1c0.3,1.9,1,3.5,2.5,4.7c0.8,0.6,1-0.1,1.4-0.5
	c0.4-0.5,0.2-0.8-0.3-1.1c-1.6-1.1-2.9-2.4-2.9-4.5c0-0.4-0.2-0.5-0.5-0.5C29.5,44.5,29.4,44.8,29.5,45.2z M39.6,39.9
	c-1.2-0.4-3.1-0.5-4.8-0.2c-1,0.2-2.1,0.1-3,0.5c-1.2,0.5-1.2,0.6-0.3,1.4c0.3,0.3,0.5,0.3,0.8,0.1c0.3-0.3,0.7-0.4,1.2-0.6
	C35.4,40.6,37.4,40.3,39.6,39.9z M19.3,17.4c-0.3-1.9-0.1-3.8,0.6-5.6c0-0.1,0.2-0.4,0-0.5c-0.2-0.1-0.4,0-0.5,0.2
	c-0.6,0.7-1.2,1.4-1.8,2c-0.2,0.2-0.2,0.4,0,0.7C18.3,15.1,18.8,16.2,19.3,17.4z M42,39.5c0.7,0.1,1.4-0.2,2-0.4
	c2.3-1.1,4.5-2.6,7.1-3.2c0.1,0,0.2-0.1,0.3-0.1c0.1-0.1,0.3-0.3,0.2-0.5c-0.1-0.2-0.3-0.1-0.5,0c-0.9,0.7-2,0.7-3,0.9
	c-0.4,0.1-1-0.1-1.3,0.3C45.4,37.9,43.8,38.8,42,39.5z M26.2,48.7c-0.1,0.3,0,0.6,0.3,0.5c0.3-0.1,0.9,0.1,0.9-0.6
	c-0.2-1.5,0.1-2.8,1-4c0.3-0.4-0.1-0.5-0.3-0.6c-0.3-0.2-0.5-0.2-0.6,0.2C27,45.6,26.4,47.1,26.2,48.7z M25.6,59.7
	c0.2,1.1,1.6,2,2.7,1.8c0.4-0.1,0.6-0.3,0.8-0.6c0.2-0.3,0.2-0.5-0.2-0.6C27.8,60.1,26.7,59.9,25.6,59.7z M8.1,40.9
	c-0.8,0.2-1.2,0.6-1.3,1.2c-0.1,0.4-0.1,0.7,0.3,1C8,44,9.5,44,10.4,43c0.3-0.2,0.7-0.6,0.4-0.9c-0.3-0.3-0.4,0.3-0.6,0.5
	c-0.7,0.6-1.7,0.7-2.4,0.2c-0.8-0.6-0.1-1.1,0.1-1.7C8,41.1,8,41.1,8.1,40.9z M30.8,42c-0.6-1-1.8-1.2-2.6-0.6
	C28,41.6,27.9,41.8,28,42c0,0.2,0.2,0.2,0.4,0.2C29.1,41.9,30,42.1,30.8,42z M8.9,42.6c0.5,0,1-0.3,1.1-0.8c0-0.3-0.5-0.5-0.8-0.5
	c-0.5,0-1,0.2-1,0.8C8.1,42.6,8.6,42.5,8.9,42.6z M10.4,47.4c-0.6,0.6-1.1,3.2-0.7,3.8c0,0.1,0.1,0.1,0.2,0.1c0.2,0,0.2-0.1,0.2-0.2
	C9.8,49.9,10.3,48.7,10.4,47.4z M7.8,49.9c0.1,0,0.2,0.1,0.3,0.1c0.4-0.6,0.5-1.4,1-2c0,0-0.1-0.2-0.1-0.3c-0.1-0.1-0.3-0.1-0.4,0.1
	C8.2,48.5,8,49.2,7.8,49.9z M14.6,42.4c-1,0.2-1,0.4-0.6,1.5C14.2,43.3,14.4,42.9,14.6,42.4z M12.7,43.9c0.3-0.4,0.4-0.8,0.5-1.2
	c-0.3-0.2-0.6-0.1-0.9,0C12.5,43.1,12.6,43.5,12.7,43.9z M30.9,43.2c-0.7-0.3-1.2-0.2-1.9-0.1C29.7,43.5,30.1,43.4,30.9,43.2z
	 M9.9,46.9c-0.1-0.3-0.4-0.3-0.6-0.3c-0.2,0-0.3,0.1-0.3,0.3c0,0.3,0.2,0.4,0.4,0.4C9.7,47.3,9.9,47.2,9.9,46.9z"/>
<path style="&st1;" d="M20.6,32.6c2,1.4,3.8,3,5.3,5c0.3,0.5,0.7,1,1,1.5c0.5,0.7,1.3,1.4,0.4,2.3c0.2,2.2-1.5,4-1.6,6.1
	c0,0.2-0.1,0.5-0.1,0.7c-0.2,1.4-0.1,1.5,1.4,1.7c0.1,0,0.1,0,0.2,0c1.5,0.1,1.5,0.1,1.3-1.4c-0.1-0.9,0-1.9,0.2-3
	c0.2,0.8,0.3,1.5,0.4,2.1c0.4,1.9,1.5,3.2,3.3,4c0.4,0.2,0.7,0.2,1-0.1c0.1-0.1,0.2-0.1,0.2-0.2c2.2-1.5,2.2-1.7,0.1-3.1
	c-1.2-0.9-2.1-2-2.5-3.5c-0.1-0.4,0-0.6,0.3-0.8c0.5-0.3,1-0.6,0.9-1.3c-0.1-0.4,0.4-0.5,0.6-0.6c0.8-0.2,1.6-0.2,2.3-0.4
	c1.4-0.3,2.9-0.4,4.3-0.8c0.8-0.2,1.7-0.4,2.5-0.3c0.6,1.1,1.1,2.2,1.4,3.4c-0.6,0.8-0.9,1.7-0.3,2.6c0.2,0.3-0.1,0.4-0.2,0.6
	c-1,1.2-0.8,2.5,0.4,3.5c0.4,0.3,0.7,2.2,0.4,2.7c-0.8,1.5-2.1,2.7-3.5,3.6c-4.8,3-9.9,3.2-15.2,1.5c-2.6-0.8-5.1-1.6-7.3-3.3
	c-3.1-2.4-4.1-5.4-3.2-9.2c0.3-1.1,0.4-2.4,0.5-3.5c0-0.4,0.1-0.6,0.4-0.9c0.8-0.7,1.3-1.4,1.1-2.5c-0.1-0.3,0.2-0.3,0.4-0.4
	c0.4-0.2,0.8-0.4,1.1-0.6c1.4-1,1.6-2.3,0.8-3.8c-0.2-0.3-0.5-0.5-0.4-0.9C19.3,33.2,19.9,32.9,20.6,32.6z M33.4,44.4
	c0.6,2.2,4.4,3.7,6.4,2.6C37.5,46.6,35.4,45.7,33.4,44.4z M18.7,39.8c0.3,1.1,1.4,2,3.1,2.4c0.9,0.2,1.6-0.4,2.3-0.8
	C22.1,41.4,20.4,40.7,18.7,39.8z M23.1,38c0-0.7-0.7-1.4-1.4-1.3c-0.7,0-1.4,0.8-1.4,1.5c0,0.7,0.6,1.2,1.4,1.1
	C22.4,39.2,23.1,38.7,23.1,38z M37.6,43.8c0,0.7,0.6,1.3,1.1,1.2c0.7-0.1,1-0.5,1.1-1.2c0-0.6-0.6-1.2-1.2-1.2
	C37.9,42.8,37.7,43.3,37.6,43.8z"/>
<path style="&st2;" d="M51,33.6c0.7-1.1,1.3-2.2,1.2-3.6c-0.2-1.7-1.1-3-2.5-3.3c-0.3-0.1-0.6-0.2-0.8,0.2c2.1,0.5,2.4,3.3,1.8,4.9
	c-0.4,1.1-1.3,1.9-2.2,2.7c-0.2,0.1-0.4,0.5-0.7-0.1c-0.2-0.4-0.4,0.1-0.5,0.2c-0.9,1.2-2.1,2.1-3.4,2.9c-3,1.8-6.8,1.5-9.5-0.8
	c-0.3-0.3-0.6-0.7-0.7-1.1c-0.2-2.1,0-4.2,0.9-6.1c0.5,0.8,0.6,1.8,1.1,2.6c1.4,2.1,3.5,2.3,5.7,1.9c2.4-0.4,5.3-4,5.4-6.4
	c0-0.1,0-0.3,0-0.4c-0.1-2.1-1.2-3.7-2.6-5.2c-1.3-1.3-2.7-2-4.6-1.7c-0.8,0.1-1.2-0.3-1.6-0.9c-1-1.6-2.2-3-3.8-4
	c-2.3-1.5-4.6-1.3-6.8,0.1c-2.2,1.3-3.8,3.2-3.4,6c0.4,2.6,1.4,5,4.9,3.7c-0.6,2.4-2.5,3.5-5.2,3c-0.3-0.1-0.7-0.1-1-0.2
	c-3.2-1.1-3.6-2.6-3-5.4c0.7-3.2,2.1-6,3.6-8.9c0.3-0.5,0.7-0.8,1.1-1.1c-0.1-0.2-0.2-0.2-0.3-0.1c-0.3,0.1-0.7,0.5-0.9,0.2
	c-0.3-0.3,0.2-0.7,0.4-0.9c0.4-0.6,0.9-1.2,1.6-1.5c1.3-0.5,2.1-0.3,3,0.9c0.3,0.4,0.6,0.9,1,1.4c0.1-1.7-1.1-3.3-2.1-3.6
	c-1.2-0.4-2.9,0.1-3.9,1.3c-0.4,0.5-0.9,1.1-1.3,1.6c0-0.1,0.1-0.3-0.1-0.2c0,0.1,0.1,0.1,0.1,0.2c-0.7,1.9-0.7,4.1-1.9,5.9
	c0.2-2.7,0.4-5.4,2.4-7.5c0.9-1,2-1.7,3.4-1.6c1.6,0,3.2-0.3,4.7,0.7c0.6,0.4,0.7,0.6,0.5,1.3c1.4,0.1,2.8,0.1,4.2,0.4
	c2.9,0.5,5.4,2.1,7.7,3.7c1.8,1.3,3.1,2.9,4,4.9c0.8,1.7,1.8,3.2,2.7,4.7c-0.6,0.4-1.3,0.8-2,1.4c0.6,0.1,1-0.1,1.4-0.2
	c1.6-0.4,2.7,0.1,3.3,1.6c0.4,0.9,0.7,1.9,0.6,2.9C52.6,31.2,52.5,32.8,51,33.6C51,33.6,51,33.6,51,33.6z M47.9,33.9L47.9,33.9
	L47.9,33.9L47.9,33.9z"/>
<path style="&st1;" d="M28.9,25c-3.5,1.3-4.5-1.1-4.9-3.7c-0.4-2.8,1.1-4.7,3.4-6c2.2-1.3,4.5-1.6,6.8-0.1c1.6,1.1,2.8,2.4,3.8,4
	c0.4,0.7,0.8,1.1,1.6,0.9c1.8-0.3,3.3,0.4,4.6,1.7c1.4,1.5,2.6,3,2.6,5.2c0,0.1,0,0.3,0,0.4c-0.1,2.4-3,6-5.4,6.4
	c-2.2,0.4-4.3,0.2-5.7-1.9c-0.5-0.8-0.6-1.8-1.1-2.6c0-0.3,0-0.6,0-1c-1.8,2.2-2.4,4.7-2,7.4c0.1,0.9,0.8,1.6,1.6,2.1
	c0.3,0.2,0.6,0.4,1,0.7c-1.7-0.2-3.2,0.2-4.6,1.2c-0.4-1-0.6-2-1.1-2.8c-0.8-1.5-2.1-2.5-3.3-3.7c-0.7-0.7-1.5-1.3-2.2-2
	c0.9-0.6,2.2-0.9,2.6-2.1c0.8-0.5,1.7-1,2.2-1.8c0.5-0.9,0.7-1.8,0.6-2.9C29.1,24.7,29,24.9,28.9,25z M30.2,18.5L30.2,18.5
	c-0.6,0.8-0.5,1.7,0.2,2.4c0.8,0.8,1.8,1,2.6,0.5c0.7-0.4,1.3-2,1-2.6c-0.1-0.3-0.2-0.6-0.6-0.7c-1.1-0.8-2-0.8-3,0
	C30.2,18.1,30.2,18.3,30.2,18.5z M39.5,24.4c-0.2-0.1-0.4,0-0.4,0.2c-0.5,0.3-0.6,0.9-0.9,1.4c-0.3,0.3-0.4,0.6,0,0.9l0,0
	c-0.1,0.6,0,1,0.6,1.4c0.9,0.6,2.2,0.5,2.8-0.3c0.8-1.2,0.7-2.6-0.3-3.5C40.7,24.1,40.1,23.7,39.5,24.4L39.5,24.4z M29.5,21.6
	c0.6,2.8,2.1,3.4,5.4,2.4c0.1,0.9-0.2,1.9,0.1,2.8c0.4,1,1.1,1.5,2,1.4c-1.8-1.1-1.2-2.9-1.5-4.6c0.5,0.1,0.9,0.2,1.3,0.3
	c0.6,0,1.3,0,1.6-0.8c0.4-1.3-0.5-3-1.8-3.3c-0.8-0.2-1.6,0-2.1,0.7c-0.5,0.7-0.3,1.4,0,2c0.1,0.3,0.4,0.4,0.4,0.8
	C33,23.6,30.9,24.1,29.5,21.6z M30.9,32.3c-1.3-0.3-1.9-1.2-2.6-2.2C28.3,31.8,29.2,32.7,30.9,32.3z M29.5,29
	c-0.3,1.6,0.5,2.1,2.5,1.6C31.1,30.2,29.8,30.3,29.5,29z"/>
<path style="&st10;" d="M11.9,24.8c-0.9,0.4-1.1,0.3-1.1-0.7c-0.1-4.6,1.4-8.7,4-12.4c2-2.8,4.1-5.6,7-7.5c1.8-1.2,3.8-2.2,5.9-2.7
	c2.7-0.7,5.4-0.9,8.2-0.4c2.2,0.4,4.5,0.5,6.5,1.6c3.4,1.8,6.2,4.4,8.8,7.2c2.6,2.9,4.6,6,5.8,9.8c0.4,1.2,0.6,2.4,0.6,3.6
	c0,1.6,0,3.2,0,4.8c0,5-2.3,8.9-6,12c-0.3,0.2-0.4,0.3-0.5,0c0-0.1-0.1-0.1-0.1-0.2c-1-1.7-1-1.6,0.5-2.9c3.7-3.3,5.2-7.4,4.5-12.3
	c-1.2-7.8-6-13-12.2-17.3c-3-2-6.1-3.3-9.7-3.3c-3.5,0-6.9,0.5-9.9,2.3c-1.9,1.1-3.7,2.5-5.3,4.1c-2.5,2.5-4.5,5.4-6,8.6
	c-0.4,0.9-0.5,1.8-0.7,2.8C11.6,22.8,12,23.9,11.9,24.8z"/>
<path style="&st2;" d="M38.1,65.9c-0.1,4.5-4,5.9-6.6,4.9c-1.1-0.4-2.2-0.8-3-1.6c-0.6-0.6-1-1.2-1.1-2c0-0.2,0.1-0.5-0.2-0.5
	c-0.3,0-0.3,0.3-0.4,0.5c-0.7,1.1-1.6,2-3,2.3c-1.8,0.4-4.6-1.1-5-2.8c-0.3-1.1,0.2-2.2,0.6-3.2c0.7-1.5,1.5-3,2.3-4.4
	c0.2-0.3,0.3-0.4,0.7-0.3c0.4,0.2,0.9,0.3,1.3,0.4c0.8,0.2,1.4,0.4,1.6,1.5c0.1,1.1,1.3,1.8,2.5,1.9c1,0,1.7-0.5,2-1.5
	c0.2-0.5,0.4-0.6,1-0.5c1.6,0.2,3.2,0.1,4.8-0.3c0.6-0.2,0.8,0,1,0.6c0.5,1.5,1.5,2.9,1.6,4.5C38.1,65.5,38.1,65.8,38.1,65.9z"/>
<path style="&st2;" d="M44.3,53.9c1.1,0.4,1.6,1.2,1.9,2.4c0.3,1.4,1.2,2.6,2,3.8c0.5,0.7,1,1.4,1.3,2.3c0.5,1.4,0.2,2-1.2,2.4
	c-0.8,0.2-1.6,0.3-0.9,1.4c0.2,0.3-0.2,0.8-0.5,1c-0.8,0.6-1.8,0.7-2.7,0.1c-0.6-0.4-1-0.3-1.3,0.3c-0.6,1.1-2.8,1.3-3.7,0.4
	c-0.2-0.2-0.3-0.4-0.2-0.7c0.4-2-0.1-3.7-1.2-5.4c0-0.1-0.1-0.1-0.1-0.2c-0.9-1.6-0.8-2,0.8-2.8c1.4-0.7,2.9-1.4,4-2.6
	C43.3,55.8,43.9,54.9,44.3,53.9z"/>
<path style="&st2;" d="M11.6,30.7c0.9,0.3,1.9,0.2,2.9,0.1c0.8-0.1,1.6-0.2,2.3,0c0.7,0.2,1,0.6,0.5,1.2c-0.7,0.9-0.5,1.6,0.2,2.4
	c1.2,1.5,0.9,2.5-0.9,3.1c-0.3,0.1-0.6,0.2-0.9,0.3c-0.4,0.2-0.6,0.6-0.5,1.1c0.4,1.4-0.7,2.7-2.1,2.5c-1.4-0.2-2.7-0.6-3.9-1.5
	c-0.9-0.8-1.3-1.7-1-2.8c0.4-1.9,1.1-3.7,1.3-5.6c0.1-1.3,0.2-2.6,0.3-3.8c0-0.6,0-1.2,0.6-1.4c0.6-0.2,1.3-0.2,1.9,0.3
	c0.5,0.5,0.4,1.1,0.2,1.7C12.2,29,11.9,29.8,11.6,30.7z"/>
<path style="&st2;" d="M18.5,62.6c-0.2,1.1-0.7,2.1-0.6,3.2c0,0.6-0.5,0.6-0.9,0.5c-0.7-0.2-1.3-0.6-1.6-1.3c-0.3-0.7-0.7-1-1.4-0.5
	c-0.5,0.4-1,0.1-1.2-0.4c-0.4-1.1-1.1-1.2-2.1-1c-1.3,0.2-2.2-1-1.9-2.3c0.2-1.1,0.9-1.8,1.6-2.6c0.7-0.8,1.6-1.5,2.2-2.4
	c0.6-0.9,1.2-1.8,1.8-2.7c1,1.5,2.3,2.8,3.8,3.7c0.8,0.5,1.6,1,2.5,1.3c0.6,0.2,0.6,0.5,0.3,0.9C20,60.1,19.1,61.3,18.5,62.6
	c0-0.1,0-0.2-0.1-0.2c0,0-0.1,0-0.1,0.1C18.4,62.5,18.4,62.6,18.5,62.6z"/>
<path style="&st2;" d="M49.5,43.3c0.9-2.2,0.1-4.1-2-5.1c1.2-0.7,1.2-0.7,1.8,0.6c0.9,1.9,1.9,3.7,2.2,5.8c0.5,3,0,5.8-2.3,8.1
	c-0.7,0.7-1.6,1-2.6,1c-1.3,0.1-2.3-1.2-1.8-2.5c0.3-0.7,0.1-1-0.5-1.3c-0.5-0.2-0.8-0.5-0.8-1.1c0-0.7,0.4-1,0.9-1.1
	c0.3-0.1,0.7-0.2,0.7-0.6c0.1-0.4-0.3-0.6-0.6-0.8c-0.7-0.4-0.7-1-0.2-1.5c0.5-0.4,1-0.7,1.6-0.9c0.6-0.1,1.2-0.3,1.8-0.6
	c-1.2-0.2-1.9-0.9-2.3-1.9c-0.3-0.7-0.3-1.4,0.4-1.8c0.6-0.4,1.8-0.3,2.3,0.3c0.5,0.6,0.8,1.3,1,2.1C49.4,42.4,49.4,42.8,49.5,43.3z
	"/>
<path style="&st2;" d="M18.7,22.7c-0.5,4,1.7,7,4.7,9.7c1.8,1.6,3.7,3.2,5.3,5.1c0.5,0.6,0.8,1.2,1,1.9c0.1,0.3,0.4,0.8,0.1,0.9
	c-0.5,0-1.2,0.6-1.7-0.2c-0.4-0.9-0.9-1.7-1.3-2.6c-0.9-2-2.5-3.3-4.1-4.6c-2.4-2-4.2-4.4-5.5-7.2c-0.5-1.1-0.5-2.2-0.4-3.4
	c0.2-1.6,0.2-3.2-0.1-4.8c-0.1-0.5-0.2-1-0.5-1.4c-0.2-0.3-0.2-0.5,0-0.8c0.4-0.7,0.7-0.6,1.1,0c0.9,1.4,1.2,3,1.3,4.7
	C18.7,20.7,18.7,21.5,18.7,22.7z"/>
<path style="&st5;" d="M12.1,46.8c0.7-0.2,1.2,0.1,1.2,0.8c-0.1,0.8-0.1,1.5,0.1,2.3c0.2,1.3-0.1,2-1.3,2.6
	c-1.8,0.9-3.6,0.9-5.3-0.2c-0.6-0.4-1-1-1.2-1.6c-0.4-1.4-0.4-2.8,0.1-4.2c0.9,0.4,1.6,0.9,2.6,1.1c-0.5,0.9-0.9,1.8-1,2.8
	c0,0.3-0.1,0.6,0,0.8c0.2,0.3,0.5,0.5,0.8,0.5c0.4,0,0.4-0.4,0.4-0.6c0.1-0.4,0.3-0.7,0.5-1.1c0,0.3,0,0.7,0,1c0,0.7,0.4,1.1,1.1,1
	c0.6-0.1,0.7-0.4,0.7-1.1c-0.1-1,0-2.1,0.2-3.1C11.1,47.3,11.8,47.3,12.1,46.8L12.1,46.8z"/>
<path style="&st2;" d="M20.6,32.6c-0.7,0.3-1.3,0.7-2,0.8c-0.4-0.1-0.4-0.3-0.2-0.6c0.5-0.8,0.7-1.7,0-2.4c-0.7-0.8-1.7-1-2.7-0.8
	c-0.8,0.1-1.6,0.5-2.4,0.7c-0.2,0.1-0.5,0.2-0.7,0c-0.2-0.2,0-0.5,0.1-0.7c0.2-0.4,0.3-0.7,0.5-1.1c0.6-1,0.5-1.9-0.3-2.8
	c-0.4-0.4-0.3-0.6,0.1-0.9c0.9-0.7,1.7-1.5,2.9-2c-0.4,3.7,1.9,6.2,4,8.8C20.1,31.9,20.5,32.1,20.6,32.6z"/>
<path style="&st5;" d="M11.6,42.6c0.6,1,0.2,2,0,3c-0.1,0.4-0.5,0.6-1,0.6c-1.2,0.1-2.3,0-3.4-0.6c-0.8-0.4-0.9-1-0.5-1.7
	C8.7,44.8,11,44.6,11.6,42.6z"/>
<path style="&st2;" d="M29.5,45.2c0-0.5,0-0.7,0.4-0.7c0.3,0,0.5,0,0.5,0.5c0,2.1,1.3,3.4,2.9,4.5c0.5,0.3,0.7,0.6,0.3,1.1
	c-0.4,0.4-0.6,1.1-1.4,0.5c-1.5-1.2-2.3-2.8-2.5-4.7C29.6,45.9,29.6,45.5,29.5,45.2z"/>
<path style="&st2;" d="M39.6,39.9c-2.1,0.3-4.2,0.7-6.2,1.2c-0.4,0.1-0.8,0.3-1.2,0.6c-0.3,0.2-0.5,0.2-0.8-0.1
	c-0.9-0.9-0.9-1,0.3-1.4c1-0.4,2-0.3,3-0.5C36.5,39.4,38.4,39.5,39.6,39.9z"/>
<path style="&st2;" d="M43.5,44.1c-0.3-1.2-0.8-2.3-1.4-3.4c0.8-0.2,1.7-0.3,2.5-0.9c-0.1,1.4,0.4,2.5,1.5,3.4
	C45,43.3,44.2,43.6,43.5,44.1z"/>
<path style="&st2;" d="M26.4,29.2c-0.4,1.2-1.6,1.5-2.6,2.1c-0.9-1-2.2-1.6-2.7-2.9l0,0C22.9,28.9,24.6,29.4,26.4,29.2z"/>
<g>
	<path style="&st11;" d="M25.3,6.9c2.9-1.6,5.9-1.8,9.1-1.8c4.4,0.1,7.8,2.4,11.2,4.9c2.8,2.1,5.1,4.6,6.8,7.6
		c1.9,3.3,2.9,6.9,2.5,10.7c-0.1,1.1-0.4,2.2-1,3.2c0.2-1.2,0.1-2.4-0.1-3.5c-0.4-1.9-1.1-3.5-3.3-3.9c-0.4-0.1-0.4-0.4-0.6-0.7
		c-1.1-2.3-2.1-4.7-3.6-6.8c-1.5-2.3-3.8-3.6-6.1-4.9c-1.6-0.9-3.2-1.8-5-2.1c-1-0.1-1.9,0.1-2.9,0.2c-0.4,0-0.7,0-1-0.4
		c-0.8-1-1.8-1.8-3-2.1c-0.4-0.4-1-0.1-1.5-0.2C26.4,7,25.8,7.3,25.3,6.9z"/>
	<path style="&st11;" d="M16.1,21.3c-0.1,0.1-0.2,0.3-0.3,0.3c-1,0.4-1.9,0.9-2.6,1.7c-0.6-1.3,0.7-4.2,2.4-6.7
		c0.5,0.5,0.5,1.2,0.5,1.8C16.1,19.4,16.1,20.3,16.1,21.3z"/>
	<path style="&st11;" d="M19.3,17.4c-0.5-1.2-1-2.3-1.8-3.3c-0.2-0.2-0.2-0.4,0-0.7c0.6-0.7,1.2-1.4,1.8-2c0.1-0.2,0.3-0.3,0.5-0.2
		c0.3,0.1,0.1,0.3,0,0.5C19.2,13.6,19,15.5,19.3,17.4z"/>
</g>
<path style="&st2;" d="M42,39.5c1.8-0.7,3.4-1.6,4.6-3.1c0.3-0.4,0.9-0.2,1.3-0.3c1.1-0.2,2.1-0.2,3-0.9c0.2-0.1,0.4-0.2,0.5,0
	c0.1,0.2,0,0.4-0.2,0.5c-0.1,0.1-0.2,0.1-0.3,0.1c-2.6,0.6-4.7,2.1-7.1,3.2C43.4,39.3,42.8,39.7,42,39.5z"/>
<path style="&st2;" d="M26.2,48.7c0.2-1.6,0.8-3.1,1.3-4.6c0.1-0.3,0.3-0.3,0.6-0.2c0.2,0.2,0.6,0.2,0.3,0.6c-0.8,1.2-1.1,2.6-1,4
	c0.1,0.7-0.5,0.5-0.9,0.6C26.2,49.3,26.1,49,26.2,48.7z"/>
<path style="&st1;" d="M25.6,59.7c1.1,0.2,2.1,0.4,3.2,0.6c0.5,0.1,0.5,0.3,0.2,0.6c-0.2,0.3-0.4,0.5-0.8,0.6
	C27.3,61.7,25.9,60.8,25.6,59.7z"/>
<path style="&st5;" d="M8.1,40.9C8,41.1,8,41.1,8,41.2c-0.3,0.5-0.9,1.1-0.1,1.7c0.7,0.5,1.7,0.4,2.4-0.2c0.2-0.2,0.3-0.8,0.6-0.5
	c0.3,0.3-0.1,0.7-0.4,0.9C9.5,44,8,44,7.1,43.1c-0.3-0.3-0.3-0.7-0.3-1C6.9,41.5,7.4,41.1,8.1,40.9z"/>
<path style="&st2;" d="M30.8,42c-0.8,0.1-1.7-0.1-2.5,0.2c-0.2,0-0.3,0-0.4-0.2c-0.1-0.2,0-0.4,0.2-0.6C29,40.8,30.2,41,30.8,42z"/>
<path style="&st5;" d="M8.9,42.6c-0.3-0.1-0.8,0-0.7-0.5c0.1-0.5,0.6-0.7,1-0.8c0.3,0,0.8,0.2,0.8,0.5C9.9,42.4,9.4,42.6,8.9,42.6z"
	/>
<path style="&st2;" d="M10.4,47.4c-0.1,1.3-0.6,2.5-0.3,3.7c0,0.1,0,0.3-0.2,0.2c-0.1,0-0.2-0.1-0.2-0.1C9.3,50.6,9.8,48,10.4,47.4z
	"/>
<path style="&st2;" d="M50,34.3c-0.6,1.1-1.8,1-2.7,1.4C48,34.8,49.2,34.9,50,34.3L50,34.3z"/>
<path style="&st2;" d="M7.8,49.9c0.2-0.7,0.5-1.4,0.7-2.1c0.1-0.2,0.2-0.2,0.4-0.1C8.9,47.8,9,48,9,48c-0.5,0.6-0.5,1.4-1,2
	C7.9,49.9,7.8,49.9,7.8,49.9z"/>
<path style="&st2;" d="M6.8,46.4c0.4,0,0.9,0,1.3,0.1c0.2,0,0.6-0.1,0.4,0.4C8.5,47.1,8.3,47.2,8,47C7.6,46.8,7.1,46.8,6.8,46.4
	C6.8,46.4,6.8,46.4,6.8,46.4z"/>
<path style="&st4;" d="M57.6,28.1c0-1.6,0-3.2,0-4.8C57.9,24.9,57.9,26.5,57.6,28.1z"/>
<path style="&st2;" d="M25.3,6.9c0.5,0.4,1.1,0.1,1.6,0.2c0.5,0.1,1-0.2,1.5,0.2c-1.2,0-2.4,0-3.6,0C24.9,7,25.2,7,25.3,6.9z"/>
<path style="&st2;" d="M14.6,42.4c-0.2,0.5-0.4,1-0.6,1.5C13.6,42.7,13.7,42.6,14.6,42.4z"/>
<path style="&st5;" d="M12.7,43.9c-0.1-0.4-0.3-0.8-0.4-1.2c0.3,0,0.6-0.1,0.9,0C13.2,43.1,13,43.5,12.7,43.9z"/>
<path style="&st2;" d="M12.1,46.8c-0.5-0.3-0.8,0.5-1.3,0.2c0.2-0.4,0.6-0.7,0.9-0.8C12,46.2,12,46.6,12.1,46.8
	C12.1,46.8,12.1,46.8,12.1,46.8z"/>
<path style="&st2;" d="M30.9,43.2c-0.8,0.2-1.2,0.3-1.9-0.1C29.7,42.9,30.2,42.9,30.9,43.2z"/>
<path style="&st4;" d="M11.9,24.8c0.1-1-0.3-2,0.2-3C12,22.8,12.3,23.9,11.9,24.8z"/>
<path style="&st2;" d="M16.1,21.3c0-1,0-1.9,0-2.9C16.4,19.4,16.3,20.3,16.1,21.3z"/>
<path style="&st2;" d="M9.9,46.9c0,0.3-0.3,0.4-0.5,0.4c-0.2,0-0.4-0.1-0.4-0.4c0-0.2,0.1-0.3,0.3-0.3C9.6,46.6,9.8,46.7,9.9,46.9z"
	/>
<path style="&st2;" d="M6.7,46.4c-0.4-0.1-0.7-0.3-0.9-0.7C6.4,45.7,6.6,46.1,6.7,46.4C6.8,46.4,6.8,46.4,6.7,46.4z"/>
<path style="&st2;" d="M50.8,33.7c-0.1,0.5-0.3,0.6-0.8,0.6l0,0C50.2,34,50.4,33.8,50.8,33.7L50.8,33.7z"/>
<path style="&st2;" d="M50.8,33.7c0.1-0.1,0.1-0.1,0.2-0.2c0,0,0,0,0,0C50.9,33.6,50.9,33.7,50.8,33.7
	C50.8,33.7,50.8,33.7,50.8,33.7z"/>
<path style="&st2;" d="M21.1,28.5C21.1,28.4,21.1,28.4,21.1,28.5C21.1,28.4,21.1,28.4,21.1,28.5C21.1,28.4,21.1,28.4,21.1,28.5
	C21.1,28.5,21.1,28.5,21.1,28.5z"/>
<path style="&st0;" d="M33.4,44.4c2,1.3,4.1,2.1,6.4,2.6C37.7,48.1,33.9,46.6,33.4,44.4z"/>
<path style="&st0;" d="M18.7,39.8c1.7,0.9,3.4,1.6,5.4,1.5c-0.7,0.5-1.4,1.1-2.3,0.8C20.1,41.8,19,40.9,18.7,39.8z"/>
<path style="&st0;" d="M23.1,38c0,0.7-0.6,1.3-1.5,1.3c-0.9,0-1.4-0.4-1.4-1.1c0-0.7,0.7-1.5,1.4-1.5C22.3,36.6,23,37.3,23.1,38z
	 M22.4,37.8c-0.1-0.4-0.3-0.7-0.8-0.7c-0.5,0-0.8,0.3-0.9,0.8c0,0.5,0.3,0.6,0.8,0.6C22,38.5,22.3,38.3,22.4,37.8z"/>
<path style="&st0;" d="M37.6,43.8c0.1-0.5,0.3-1.1,1-1.1c0.6-0.1,1.3,0.6,1.2,1.2c0,0.7-0.4,1.1-1.1,1.2
	C38.2,45.1,37.6,44.5,37.6,43.8z M38.7,43.2c-0.4,0-0.4,0.3-0.4,0.5c0,0.2,0,0.5,0.4,0.6c0.3,0,0.4-0.2,0.4-0.5
	C39.1,43.5,39,43.3,38.7,43.2z"/>
<path style="&st0;" d="M21.9,11.6c0-0.1-0.1-0.1-0.1-0.2C22,11.4,21.8,11.6,21.9,11.6C21.9,11.7,21.9,11.6,21.9,11.6z"/>
<polygon style="&st0;" points="47.9,33.9 47.8,33.8 47.9,33.8 "/>
<path style="&st0;" d="M29.5,21.6c1.4,2.5,3.4,2,5.4,1.8c0-0.4-0.3-0.6-0.4-0.8c-0.3-0.7-0.6-1.4,0-2c0.5-0.7,1.3-0.8,2.1-0.7
	c1.3,0.3,2.3,2,1.8,3.3c-0.3,0.7-0.9,0.8-1.6,0.8c-0.4,0-0.8-0.1-1.3-0.3c0.2,1.6-0.4,3.5,1.5,4.6c-0.9,0.2-1.6-0.3-2-1.4
	c-0.3-0.9-0.1-1.9-0.1-2.8C31.6,25,30.1,24.4,29.5,21.6z M37.4,22.1c-0.2-0.8-0.5-1.1-1.1-1.2c-0.3,0-0.3,0.3-0.2,0.5
	C36.2,22.3,36.9,21.8,37.4,22.1z"/>
<path style="&st0;" d="M30.4,18.1c1-0.8,2-0.8,3,0c0.6,1.8-0.3,3-2,2.7c-1-0.2-1.3-0.9-1.2-2.3c0,0,0,0,0,0
	C30.3,18.3,30.3,18.2,30.4,18.1z M32.1,17.8c-0.3,0-0.5,0.2-0.5,0.5c0,0.4,0.3,0.4,0.6,0.5c0.2,0,0.5-0.1,0.5-0.4
	C32.7,18,32.4,17.9,32.1,17.8z"/>
<path style="&st0;" d="M38.2,26c0.3-0.5,0.4-1.1,0.9-1.4c0.1-0.1,0.3-0.1,0.4-0.2c0,0,0,0.1,0,0.1c1,0,1.7,0.5,1.8,1.3
	c0.1,0.7,0.1,1.6-0.8,1.9c-0.8,0.3-1.8,0-2.3-0.8c0,0,0,0,0,0C38.2,26.6,38.2,26.3,38.2,26z M39.8,25.8c0.3-0.1,0.4-0.2,0.5-0.5
	c0-0.4-0.3-0.5-0.5-0.5c-0.3,0-0.4,0.1-0.4,0.4C39.3,25.6,39.5,25.7,39.8,25.8z"/>
<path style="&st5;" d="M38.2,26.9c0.5,0.8,1.5,1.1,2.3,0.8c0.9-0.4,0.9-1.2,0.8-1.9c-0.1-0.9-0.8-1.3-1.8-1.3
	c0.6-0.7,1.2-0.3,1.7,0.1c1,0.8,1.1,2.2,0.3,3.5c-0.6,0.8-1.9,0.9-2.8,0.3C38.2,27.9,38.1,27.5,38.2,26.9z"/>
<path style="&st5;" d="M30.2,18.4c-0.1,1.4,0.3,2.1,1.2,2.3c1.6,0.3,2.5-0.9,2-2.7c0.4,0,0.5,0.4,0.6,0.7c0.3,0.7-0.3,2.2-1,2.6
	c-0.8,0.5-1.9,0.3-2.6-0.5C29.7,20.2,29.7,19.3,30.2,18.4z"/>
<path style="&st0;" d="M30.9,32.3c-1.6,0.3-2.6-0.5-2.6-2.2C29,31.1,29.6,32,30.9,32.3z"/>
<path style="&st0;" d="M29.5,29c0.3,1.3,1.5,1.2,2.5,1.6C30,31,29.3,30.5,29.5,29z"/>
<path style="&st5;" d="M38.2,26c0,0.3,0,0.6,0,0.9C37.8,26.6,37.9,26.3,38.2,26z"/>
<path style="&st5;" d="M30.4,18.1c-0.1,0.1-0.1,0.3-0.2,0.4C30.2,18.3,30.2,18.1,30.4,18.1z"/>
<path style="&st5;" d="M39.5,24.4c-0.1,0.1-0.3,0.1-0.4,0.2C39.2,24.4,39.3,24.3,39.5,24.4z"/>
<path style="&st0;" d="M18.5,62.6c-0.1-0.1-0.1-0.1-0.2-0.2c0,0,0.1,0,0.1-0.1C18.5,62.5,18.5,62.6,18.5,62.6
	C18.5,62.6,18.5,62.6,18.5,62.6z"/>
<path style="&st1;" d="M22.4,37.8c-0.1,0.5-0.4,0.7-0.8,0.7c-0.4,0-0.8-0.1-0.8-0.6c0-0.5,0.4-0.8,0.9-0.8
	C22.1,37.1,22.4,37.4,22.4,37.8z"/>
<path style="&st1;" d="M38.7,43.2c0.3,0.1,0.4,0.3,0.4,0.6c0,0.3-0.1,0.5-0.4,0.5c-0.3,0-0.4-0.3-0.4-0.6
	C38.3,43.5,38.3,43.2,38.7,43.2z"/>
<path style="&st2;" d="M37.4,22.1c-0.5-0.4-1.2,0.1-1.3-0.7c0-0.2-0.1-0.5,0.2-0.5C36.9,21,37.2,21.3,37.4,22.1z"/>
<path style="&st1;" d="M32.1,17.8c0.3,0.1,0.6,0.2,0.5,0.5c0,0.3-0.3,0.4-0.5,0.4c-0.2,0-0.6,0-0.6-0.5
	C31.6,17.9,31.8,17.8,32.1,17.8z"/>
<path style="&st5;" d="M39.8,25.8c-0.3-0.1-0.5-0.2-0.5-0.5c0-0.3,0.2-0.5,0.4-0.4c0.3,0,0.6,0.1,0.5,0.5
	C40.2,25.6,40.1,25.7,39.8,25.8z"/>
<path style="&st12;" d="M246.6,37.6c0.7-1.8,1.3-3.6,2-5.4c0.9-2.2,2.5-3.2,4.9-2.9c3,0.4,4.2,2.2,2.6,4.7c-3.1,4.8-3,9.3,0,14
	c1.1,1.6,2.4,3.7-0.7,5c-2.7,1.2-5.3,0.3-6.5-2.3c-0.9-1.9-1.5-3.9-2.9-5.8c0,1.5,0.1,3.1,0,4.6c-0.1,2.9-1.2,3.9-3.9,3.9
	c-2.8,0-3.9-0.9-4-3.9c-0.1-2.9,0-5.7,0-8.6c0-5.9,0-11.8,0-17.7c0-1.6-0.4-3.3,2-3.7c2.4-0.3,4.4,0.2,5.4,2.5
	c0.5,1.1,0.6,2.4,0.6,3.7c0.1,3.8,0,7.7,0,11.5C246.2,37.5,246.4,37.6,246.6,37.6z"/>
<path style="&st13;" d="M141.1,37.6c0.8-2.2,1.4-4,2.2-5.8c1.1-2.4,3.3-3.2,5.6-2.4c2.5,0.9,3.3,2.2,1.8,4.3
	c-3.3,5-3.1,9.7,0.1,14.6c1,1.6,1.9,3.4-0.7,4.7c-2.4,1.2-5.2,0.6-6.3-1.6c-1-2-1.7-4.1-3-6.1c-0.1,1.7-0.3,3.4-0.4,5.1
	c-0.2,2.6-1.8,3.2-4.1,3.1c-2.3,0-3.6-1-3.6-3.4c0-9.5-0.1-18.9,0-28.4c0-0.7,0.9-1.7,1.6-1.9c2.9-1,5.6,0.8,6,4
	c0.2,2,0.2,4.1,0.2,6.1c0,2.2,0,4.5,0,6.7C140.7,36.8,140.8,37,141.1,37.6z"/>
<path style="&st12;" d="M226.7,50.7c-0.7,0.7-1.2,1.5-1.9,2c-3.2,2.5-7.9,1.2-8.9-2.7c-0.7-3-0.6-6.2-0.7-9.3
	c-0.1-2.6-0.1-5.2,0-7.8c0.1-3,1.1-4,3.8-4.1c2.9,0,4.1,1,4.2,4c0.1,3.7,0,7.5,0.1,11.2c0,0.9,0.8,1.9,1.2,2.8
	c0.6-1,1.5-1.9,1.6-2.9c0.2-3.7,0-7.5,0.1-11.2c0-2.8,1-3.8,3.6-3.9c2.9-0.1,4.3,1,4.4,3.9c0.1,6.2,0.1,12.5,0,18.8
	c0,0.6-0.7,1.8-1,1.8c-1.6,0-3.3-0.2-4.8-0.6C227.6,52.5,227.3,51.5,226.7,50.7z"/>
<path style="&st12;" d="M200.2,32.4c0.5-0.6,0.8-1.1,1.1-1.5c1.6-1.9,3.7-2.4,6.1-2c2.4,0.5,3.9,2.2,4.1,4.5
	c0.3,5.8,0.4,11.6,0.4,17.4c0,2.6-2.2,2.9-4.3,2.8c-2.3-0.1-3.5-1.1-3.5-3.4c0-3.9,0.1-7.9-0.1-11.8c0-0.9-0.9-1.8-1.4-2.7
	c-0.5,0.9-1.5,1.8-1.5,2.7c-0.2,3.7,0,7.5-0.1,11.2c-0.1,2.9-0.9,3.8-3.6,3.9c-3.1,0.1-4.3-0.8-4.4-3.7c-0.1-6.2-0.1-12.5,0-18.7
	c0-0.6,0.7-1.7,1.1-1.7c1.5,0,3.1,0.2,4.5,0.7C199.2,30.3,199.6,31.5,200.2,32.4z"/>
<path style="&st13;" d="M103.2,51c-2.8,2.9-5.3,3.6-8.1,2.2c-2.3-1.2-3.7-4.4-3.2-7.7c1-5.9,5.9-6.2,10.7-6.6
	c-0.1-0.8,0-1.5-0.2-2.1c-0.3-0.6-0.9-1.5-1.3-1.4c-0.7,0.1-1.7,0.6-1.8,1.2c-0.6,2.3-2.2,1.9-3.8,1.6c-2-0.4-3.1-1.7-2.9-3.6
	c0.1-1.2,0.6-2.8,1.5-3.6c3.5-2.8,7.7-2.8,11.8-1.6c3.4,1,4.6,4,4.8,7.1c0.3,5.1,0.2,10.2,0.1,15.3c0,0.6-0.8,1.6-1.3,1.6
	c-1.5,0-3.1-0.1-4.6-0.6C104.2,52.6,103.7,51.6,103.2,51z M102.8,43.1c-2.8,0.1-3.2,1.7-3,3.4c0.1,0.6,0.7,1,1.1,1.6
	c0.5-0.4,1.4-0.7,1.5-1.2C102.7,45.7,102.7,44.5,102.8,43.1z"/>
<path style="&st12;" d="M181.2,38.7c-0.1-0.6,0-1.3-0.3-1.8c-0.3-0.6-0.8-1.5-1.2-1.5c-0.7,0-1.7,0.6-1.9,1.1
	c-0.7,2.6-2.5,2-4.3,1.6c-2-0.5-2.9-2.1-2.4-3.9c0.5-1.5,1.5-3.3,2.9-4.1c3.3-1.8,6.9-1.7,10.4-0.6c2.7,0.9,4.2,3,4.3,5.6
	c0.4,5.6,0.4,11.2,0.5,16.8c0,0.5-0.9,1.5-1.4,1.5c-1.5,0-3.1-0.2-4.5-0.6c-0.7-0.2-1.1-1.3-1.7-2c-2.4,2.9-4.4,3.6-7.2,2.7
	c-2.5-0.8-3.9-3-4-6.3c-0.1-3.5,1.2-6,4.1-7.1C176.7,39.4,178.9,39.2,181.2,38.7z M181.4,43.3c-0.3-0.2-0.5-0.4-0.8-0.6
	c-0.7,0.8-1.8,1.5-2,2.4c-0.2,0.9,0.6,1.9,0.9,2.9c0.6-0.8,1.4-1.5,1.9-2.5C181.6,45,181.4,44.1,181.4,43.3z"/>
<path style="&st13;" d="M78.5,30.1c-1.1-0.1-1.7-0.1-2.3-0.1c-2.9-0.2-3.9-1.2-4-3.9c0-2.6,1-3.8,4-3.8c4.4-0.1,8.8-0.1,13.2,0
	c2.8,0.1,3.9,1.2,3.9,3.7c0,2.7-1.1,3.8-3.9,4C88.7,30,88,30,87,30.1c0,4.3,0,8.6,0,12.9c0,2.1,0,4.3,0,6.4c-0.1,3-1.2,4.1-4.1,4.1
	c-3.1,0.1-4.3-0.8-4.4-4c-0.1-5.4,0-10.9-0.1-16.3C78.5,32.2,78.5,31.3,78.5,30.1z"/>
<path style="&st12;" d="M157.1,30.1c-1-0.1-1.7-0.2-2.4-0.2c-3-0.2-4-1.2-4-3.9c0-2.6,1-3.8,4-3.9c4.4-0.1,8.8-0.1,13.2,0
	c2.9,0.1,3.8,1.1,3.9,3.7c0,2.8-0.9,4-3.7,4c-2.1,0-2.5,0.9-2.5,2.7c0.1,5.4,0.1,10.9,0,16.3c0,3.4-1,4.5-3.9,4.6
	c-3.4,0.2-4.5-0.8-4.6-4.3c0-5.4,0-10.7,0-16.1C157.1,32.2,157.1,31.2,157.1,30.1z"/>
<path style="&st13;" d="M114.6,45c2.5,0.9,4.4,3.5,8.1,1.3c-1.7-0.9-2.7-1.6-3.9-2c-3.3-1.2-5.4-3.1-5.5-6.8
	c-0.1-3.4,0.9-6.2,4.2-7.7c3.5-1.6,7-1.5,10.2,0.8c2.5,1.8,2.2,5-0.4,7.4c-1.2-0.8-2.4-1.8-3.8-2.3c-0.8-0.3-1.9,0.2-2.8,0.4
	c0.6,0.6,1.1,1.3,1.8,1.8c0.3,0.3,0.8,0.3,1.3,0.5c4.9,1.8,6.5,4.2,5.8,9.1c-0.5,3.7-3.5,6.1-8.2,6.2c-1.7,0-3.4-0.2-5-0.7
	C112.5,51.8,111.8,48.2,114.6,45z"/>
<path style="&st12;" d="M267.6,41.4c0,2.8,0.1,5.5,0,8.3c-0.1,3-1.2,3.9-4.2,3.9c-2.9-0.1-3.8-0.9-3.8-3.9c-0.1-5.5-0.1-11,0-16.6
	c0-3.1,1-4,3.7-4.1c3-0.1,4.3,1,4.4,4.1C267.6,35.9,267.6,38.6,267.6,41.4z"/>
<path style="&st12;" d="M263.8,18c2.8,0.1,4.3,1.8,4.2,4.8c-0.1,2.8-1.8,4.5-4.6,4.4c-2.8-0.1-4.4-1.9-4.3-5
	C259.2,19.3,260.8,17.9,263.8,18z"/>
</svg>
