<?xml version="1.0" encoding="utf-8"?>
<!-- Generator: Adobe Illustrator 24.0.3, SVG Export Plug-In . SVG Version: 6.00 Build 0)  -->
<!DOCTYPE svg PUBLIC "-//W3C//DTD SVG 1.1//EN" "http://www.w3.org/Graphics/SVG/1.1/DTD/svg11.dtd" [
	<!ENTITY st0 "fill:#191716;">
	<!ENTITY st1 "fill:#F7E5C8;">
	<!ENTITY st2 "fill:#645344;">
	<!ENTITY st3 "fill:#E69905;">
	<!ENTITY st4 "fill:#B46E04;">
	<!ENTITY st5 "fill:#FEFEFE;">
	<!ENTITY st6 "fill:#EFFCEF;">
	<!ENTITY st7 "fill:#CCEDD2;">
	<!ENTITY st8 "fill:#94D3AC;">
	<!ENTITY st9 "fill:#655C56;">
	<!ENTITY st10 "fill:#DFD3C3;">
	<!ENTITY st11 "fill:#C7B198;">
	<!ENTITY st12 "fill:#323232;">
	<!ENTITY st13 "fill:#2CC185;">
	<!ENTITY st14 "fill:#26E196;">
	<!ENTITY st15 "fill:#43F6AE;">
	<!ENTITY st16 "fill:#614092;">
	<!ENTITY st17 "fill:#596E79;">
]>
<svg version="1.1" id="Layer_1" xmlns="http://www.w3.org/2000/svg" xmlns:xlink="http://www.w3.org/1999/xlink" x="0px" y="0px"
	 viewBox="0 0 72.2 72" style="enable-background:new 0 0 72.2 72;" xml:space="preserve">
<path style="&st13;" d="M10.7,13.6c-1.9-0.1-2.9-0.2-4-0.2C1.8,13,0.1,11.3,0,6.7c-0.1-4.5,1.8-6.4,6.8-6.5c7.5-0.2,15-0.2,22.5,0
	c4.8,0.1,6.6,2,6.6,6.3c0.1,4.5-1.9,6.5-6.6,6.9c-1.2,0.1-2.4,0.2-4.2,0.4c0,7.4,0,14.6,0,21.9c0,3.7,0.1,7.3,0,11
	c-0.1,5.1-2,6.9-6.9,7c-5.3,0.2-7.3-1.4-7.5-6.9c-0.2-9.3-0.1-18.6-0.1-27.8C10.7,17.3,10.7,15.6,10.7,13.6z"/>
<path style="&st12;" d="M47.1,32c-1.7-0.2-2.9-0.3-4.1-0.4c-5.1-0.3-6.8-2-6.9-6.6c-0.1-4.5,1.8-6.5,6.8-6.6
	c7.5-0.2,15.1-0.2,22.6,0c4.9,0.1,6.5,1.9,6.6,6.3c0.1,4.8-1.5,6.9-6.4,6.9c-3.6,0-4.3,1.5-4.3,4.7c0.2,9.3,0.1,18.6,0,27.9
	c-0.1,5.8-1.8,7.7-6.6,7.9c-5.8,0.3-7.7-1.5-7.8-7.4c-0.1-9.2,0-18.3,0-27.5C47.1,35.5,47.1,33.8,47.1,32z"/>
</svg>
