<?xml version="1.0" encoding="utf-8"?>
<!-- Generator: Adobe Illustrator 24.0.3, SVG Export Plug-In . SVG Version: 6.00 Build 0)  -->
<!DOCTYPE svg PUBLIC "-//W3C//DTD SVG 1.1//EN" "http://www.w3.org/Graphics/SVG/1.1/DTD/svg11.dtd" [
	<!ENTITY st0 "fill:#191716;">
	<!ENTITY st1 "fill:#F7E5C8;">
	<!ENTITY st2 "fill:#645344;">
	<!ENTITY st3 "fill:#E69905;">
	<!ENTITY st4 "fill:#B46E04;">
	<!ENTITY st5 "fill:#FEFEFE;">
	<!ENTITY st6 "fill:#EFFCEF;">
	<!ENTITY st7 "fill:#CCEDD2;">
	<!ENTITY st8 "fill:#94D3AC;">
	<!ENTITY st9 "fill:#655C56;">
	<!ENTITY st10 "fill:#DFD3C3;">
	<!ENTITY st11 "fill:#C7B198;">
	<!ENTITY st12 "fill:#323232;">
	<!ENTITY st13 "fill:#2CC185;">
	<!ENTITY st14 "fill:#26E196;">
	<!ENTITY st15 "fill:#43F6AE;">
	<!ENTITY st16 "fill:#614092;">
	<!ENTITY st17 "fill:#596E79;">
]>
<svg version="1.1" id="Layer_1" xmlns="http://www.w3.org/2000/svg" xmlns:xlink="http://www.w3.org/1999/xlink" x="0px" y="0px"
	 viewBox="0 0 72.2 72" style="enable-background:new 0 0 72.2 72;" xml:space="preserve">
<g>
	<path style="&st0;" d="M51,54.8c0.3,1.2,0.8,2.3,1.6,3.3c0.7,1,1.4,2,2,3.1c0.5,0.9,0.7,1.9,0.6,3c-0.1,0.9-0.7,1.3-1.4,1.6
		c-0.3,0.1-0.6,0.2-0.7,0.7c-0.3,1.5-1.3,2.4-2.9,2.5c-0.2,0-0.3,0-0.5,0c-0.8-0.1-1.5,0-2.2,0.5c-1,0.6-2.2,0.4-3.2-0.2
		c-0.4-0.2-0.7-0.5-1.1-0.7C42.1,71,40,72.1,37.4,72c-2.6-0.1-5-1.1-5.9-4c-1.1,1.5-2.3,2.6-4.3,2.2c-1.9-0.3-3.7-0.9-4.5-2.9
		c-0.1-0.3-0.2-0.4-0.5-0.4c-1.1,0-2.1-0.1-2.9-0.9c-0.2-0.2-0.3-0.2-0.5-0.1c-1.2,0.4-1.9-0.2-2.6-1.1c-0.2-0.2-0.2-0.6-0.7-0.5
		c-2,0.4-3.9-1.8-3-4.2c0.6-1.6,1.7-3,2.9-4.2c1-1,1.8-2.1,2.6-3.2c0.2-0.3,0.6-0.7,0.2-1c-0.3-0.2-0.5,0.2-0.7,0.5
		c-1.7,2.1-3.9,2-5.6,1.4c-2.4-0.8-3.5-3-3.1-5.5c0.2-1,0.4-1.9,1.1-2.6c0.5-0.6,0.5-1.2,0.4-1.8c-0.4-2.2,0-2.8,1.8-3.7
		c-1.2-1.7-0.6-3.5-0.2-5.2c0.1-0.3,0.2-0.7,0.3-1c1-2,1-4.2,1-6.3c0-0.9,0-1.8,0.9-2.3c0.3-0.2,0.2-0.4,0.2-0.6
		c-0.7-4,0.2-7.6,2.4-10.9c2-3,4-6,6.7-8.4C28,1.5,33-0.4,38.8,0.1c3.1,0.2,6.3,0.5,9.1,2.2c6.9,4.2,12.2,9.9,14.7,17.8
		c0.8,2.7,0.8,5.5,0.6,8.2c-0.1,1.6-0.2,3.2-0.7,4.8c-1,3.2-2.9,5.6-5.6,7.4c-0.7,0.5-0.8,0.9-0.5,1.6C57.1,44,57.5,46,57,48
		c-0.2,0.9-0.3,1.8-0.6,2.6C55.5,53.1,53.7,54.4,51,54.8z M55.3,33.7c-0.4,0-0.6,0.3-0.8,0.6c-0.8,0.6-2,0.5-2.7,1.4
		c1-0.3,2.2-0.3,2.7-1.4C55,34.4,55.3,34.2,55.3,33.7c0.1-0.1,0.1-0.1,0.2-0.2c1.5-0.8,1.6-2.3,1.8-3.7c0.2-1-0.2-2-0.6-2.9
		c-0.6-1.4-1.7-1.9-3.3-1.6c-0.4,0.1-0.8,0.3-1.4,0.2c0.8-0.5,1.4-0.9,2-1.4c-1-1.5-2-3.1-2.7-4.7c-0.9-2-2.2-3.6-4-4.9
		c-2.4-1.7-4.8-3.2-7.7-3.7c-1.4-0.2-2.8-0.2-4.2-0.4c0.2-0.6,0.1-0.8-0.5-1.3c-1.4-1-3.1-0.7-4.7-0.7c-1.4,0-2.4,0.6-3.4,1.6
		c-2,2.1-2.1,4.8-2.4,7.5c1.2-1.9,1.2-4,1.9-5.9l0,0c0.4-0.5,0.8-1.1,1.3-1.6c1-1.2,2.7-1.7,3.9-1.3c1,0.3,2.2,2,2.1,3.6
		c-0.4-0.5-0.7-1-1-1.4c-0.9-1.2-1.7-1.4-3-0.9c-0.7,0.3-1.2,0.8-1.6,1.5c-0.2,0.3-0.7,0.6-0.4,0.9c0.2,0.3,0.6-0.2,0.9-0.2
		c0.1,0,0.2,0,0.3,0.1c-0.4,0.4-0.8,0.7-1.1,1.1c-1.5,2.8-3,5.7-3.6,8.9c-0.6,2.8-0.2,4.3,3,5.4c0.3,0.1,0.7,0.2,1,0.2
		c2.6,0.5,4.5-0.6,5.2-3c0.1-0.2,0.2-0.3,0.3-0.6c0.2,1.2-0.1,2.1-0.6,2.9c-0.5,0.9-1.4,1.3-2.2,1.8c-1.8,0.2-3.5-0.3-5.3-0.7
		c0,0,0-0.1,0-0.1c0,0,0,0-0.1,0c0,0,0.1,0.1,0.1,0.1c0.5,1.3,1.8,1.9,2.7,2.9c0.7,0.7,1.5,1.3,2.2,2c1.2,1.1,2.5,2.2,3.3,3.7
		c0.5,0.9,0.7,1.9,1.1,2.8c1.4-1,2.9-1.4,4.6-1.2c-0.3-0.3-0.6-0.5-1-0.7c-0.8-0.5-1.5-1.2-1.6-2.1c-0.4-2.7,0.1-5.1,2-7.4
		c0,0.4,0,0.7,0,1c-0.8,2-1.1,4-0.9,6.1c0,0.4,0.3,0.8,0.7,1.1c2.7,2.3,6.5,2.6,9.5,0.8c1.3-0.8,2.5-1.7,3.4-2.9
		c0.1-0.1,0.3-0.6,0.5-0.2c0.3,0.6,0.5,0.2,0.7,0.1c0.9-0.7,1.8-1.5,2.2-2.7c0.6-1.6,0.3-4.5-1.8-4.9c0.2-0.4,0.5-0.2,0.8-0.2
		c1.4,0.3,2.3,1.6,2.5,3.3c0.1,1.4-0.5,2.5-1.2,3.6C55.5,33.6,55.4,33.7,55.3,33.7z M11.4,46.4c-0.3-0.2-0.4-0.6-0.9-0.6
		C10.6,46.2,10.9,46.4,11.4,46.4c0.2,0.5,0.8,0.4,1.2,0.7c0.3,0.2,0.5,0,0.6-0.2c0.1-0.4-0.2-0.4-0.4-0.4
		C12.2,46.4,11.8,46.4,11.4,46.4z M20.6,21.3c0.2-1,0.3-1.9,0-2.9c0-0.6-0.1-1.3-0.5-1.8c-1.6,2.5-3,5.4-2.4,6.7
		c0.7-0.8,1.6-1.3,2.6-1.7C20.5,21.6,20.5,21.4,20.6,21.3z M16.6,46.8c-0.1-0.2-0.1-0.6-0.4-0.5c-0.4,0.1-0.7,0.3-0.9,0.8
		C15.9,47.3,16.1,46.5,16.6,46.8c-0.3,0.5-1,0.5-1.1,1c-0.2,1-0.3,2.1-0.2,3.1c0,0.6-0.1,1-0.7,1.1c-0.7,0.1-1-0.4-1.1-1
		c0-0.3,0-0.7,0-1c-0.2,0.3-0.4,0.7-0.5,1.1c-0.1,0.2,0,0.6-0.4,0.6c-0.4,0-0.7-0.2-0.8-0.5c-0.2-0.3-0.1-0.6,0-0.8
		c0.1-1,0.4-1.9,1-2.8c-1-0.1-1.7-0.6-2.6-1.1c-0.5,1.4-0.5,2.8-0.1,4.2c0.2,0.7,0.6,1.3,1.2,1.6c1.7,1.1,3.5,1.1,5.3,0.2
		c1.2-0.6,1.5-1.3,1.3-2.6c-0.1-0.8-0.1-1.5-0.1-2.3C17.9,46.9,17.4,46.6,16.6,46.8z M23,62.6c0.7-1.4,1.6-2.6,2.5-3.7
		c0.3-0.4,0.3-0.6-0.3-0.9c-0.9-0.3-1.7-0.8-2.5-1.3c-1.5-0.9-2.7-2.2-3.8-3.7c-0.7,1-1.2,1.9-1.8,2.7c-0.6,0.9-1.5,1.6-2.2,2.4
		c-0.6,0.8-1.4,1.6-1.6,2.6c-0.3,1.3,0.7,2.5,1.9,2.3c1.1-0.2,1.7,0,2.1,1c0.2,0.4,0.6,0.7,1.2,0.4c0.7-0.5,1.1-0.2,1.4,0.5
		c0.3,0.8,0.9,1.2,1.6,1.3c0.4,0.1,0.9,0.1,0.9-0.5C22.4,64.7,22.9,63.7,23,62.6L23,62.6z M33,7.3c1.3,0.4,2.2,1.2,3,2.1
		c0.3,0.3,0.5,0.4,1,0.4c1-0.1,1.9-0.3,2.9-0.2c1.9,0.3,3.5,1.1,5,2.1c2.3,1.3,4.6,2.7,6.1,4.9c1.5,2.1,2.4,4.5,3.6,6.8
		c0.1,0.3,0.2,0.6,0.6,0.7c2.1,0.4,2.9,2,3.3,3.9c0.2,1.2,0.3,2.4,0.1,3.5c0.6-1,0.9-2.1,1-3.2c0.4-3.9-0.5-7.4-2.5-10.7
		c-1.8-3-4-5.5-6.8-7.6C46.8,7.5,43.4,5.2,39,5.1c-3.2-0.1-6.3,0.2-9.1,1.8C29.7,7,29.5,7,29.3,7.3C30.6,7.3,31.8,7.3,33,7.3z
		 M62.2,28.1c0.3-1.6,0.3-3.2,0-4.8c0-1.2-0.3-2.4-0.6-3.6c-1.1-3.7-3.2-6.9-5.8-9.8c-2.6-2.9-5.3-5.4-8.8-7.2
		c-2.1-1.1-4.3-1.2-6.5-1.6c-2.7-0.5-5.5-0.3-8.2,0.4c-2.1,0.5-4.1,1.5-5.9,2.7c-2.9,2-5,4.7-7,7.5c-2.7,3.7-4.1,7.8-4,12.4
		c0,0.9,0.2,1.1,1.1,0.7c0.4-1,0.1-2,0.2-3c0.2-0.9,0.3-1.9,0.7-2.8c1.5-3.2,3.5-6,6-8.6c1.6-1.6,3.4-3,5.3-4.1
		c3-1.8,6.4-2.3,9.9-2.3c3.6,0,6.8,1.3,9.7,3.3c6.2,4.2,11,9.5,12.2,17.3c0.7,4.8-0.8,9-4.5,12.3c-1.5,1.3-1.5,1.3-0.5,2.9
		c0,0.1,0.1,0.1,0.1,0.2c0.2,0.3,0.2,0.3,0.5,0C59.8,37,62.2,33.1,62.2,28.1z M48,44.1c0.8-0.5,1.6-0.8,2.6-1
		c-1.2-0.9-1.6-1.9-1.5-3.4c-0.8,0.6-1.7,0.7-2.5,0.9c-0.9-0.1-1.7,0.1-2.5,0.3c-1.4,0.3-2.9,0.5-4.3,0.8c-0.7,0.1-1.6,0.1-2.3,0.4
		c-0.3,0.1-0.7,0.2-0.6,0.6c0.1,0.7-0.4,1-0.9,1.3c-0.4,0.2-0.4,0.4-0.3,0.8c0.4,1.5,1.3,2.7,2.5,3.5c2.1,1.5,2.1,1.7-0.1,3.1
		c-0.1,0.1-0.2,0.1-0.2,0.2c-0.3,0.2-0.6,0.2-1,0.1c-1.7-0.8-2.9-2.1-3.3-4c-0.1-0.7-0.3-1.3-0.4-2.1c-0.3,1.1-0.4,2-0.2,3
		c0.2,1.5,0.2,1.5-1.3,1.4c-0.1,0-0.1,0-0.2,0c-1.5-0.1-1.6-0.3-1.4-1.7c0-0.2,0.1-0.5,0.1-0.7c0.1-2.1,1.8-3.9,1.6-6.1
		c1-0.9,0.1-1.6-0.4-2.3c-0.3-0.5-0.6-1-1-1.5c-1.4-2-3.3-3.6-5.3-5c-0.1-0.4-0.5-0.6-0.7-0.9c-2-2.6-4.4-5.1-4-8.8
		c-1.1,0.5-1.9,1.3-2.9,2c-0.4,0.3-0.4,0.5-0.1,0.9c0.8,0.8,0.8,1.8,0.3,2.8c-0.2,0.3-0.4,0.7-0.5,1.1c-0.1,0.2-0.3,0.5-0.1,0.7
		c0.2,0.2,0.5,0,0.7,0c0.8-0.2,1.6-0.6,2.4-0.7c1-0.2,2,0.1,2.7,0.8c0.7,0.8,0.5,1.6,0,2.4c-0.2,0.3-0.2,0.5,0.2,0.6
		c-0.2,0.4,0.2,0.6,0.4,0.9c0.8,1.5,0.6,2.8-0.8,3.8c-0.4,0.3-0.8,0.4-1.1,0.6c-0.2,0.1-0.4,0.1-0.4,0.4c0.2,1.1-0.4,1.9-1.1,2.5
		c-0.3,0.3-0.4,0.5-0.4,0.9c-0.1,1.2-0.2,2.4-0.5,3.5c-1,3.8,0.1,6.8,3.2,9.2c2.2,1.7,4.7,2.5,7.3,3.3c5.3,1.7,10.4,1.5,15.2-1.5
		c1.5-0.9,2.7-2.1,3.5-3.6c0.3-0.5-0.1-2.4-0.4-2.7c-1.2-1-1.3-2.2-0.4-3.5c0.1-0.2,0.4-0.3,0.2-0.6C47.1,45.8,47.4,45,48,44.1z
		 M42.7,65.9c0-0.1-0.1-0.4-0.1-0.7c-0.2-1.6-1.2-3-1.6-4.5c-0.2-0.5-0.3-0.7-1-0.6c-1.5,0.4-3.2,0.6-4.8,0.3c-0.5-0.1-0.8,0-1,0.5
		c-0.3,0.9-1,1.5-2,1.5c-1.2,0-2.4-0.8-2.5-1.9c-0.1-1.1-0.7-1.3-1.6-1.5c-0.5-0.1-0.9-0.2-1.3-0.4c-0.3-0.1-0.5,0-0.7,0.3
		c-0.8,1.5-1.6,2.9-2.3,4.4c-0.5,1-0.9,2-0.6,3.2c0.4,1.7,3.1,3.2,5,2.8c1.4-0.3,2.3-1.1,3-2.3c0.1-0.2,0.2-0.5,0.4-0.5
		c0.3,0,0.2,0.3,0.2,0.5c0.1,0.8,0.5,1.4,1.1,2c0.9,0.8,2,1.2,3,1.6C38.7,71.8,42.6,70.4,42.7,65.9z M48.8,53.9
		c-0.3,1-1,1.8-1.8,2.6c-1.2,1.2-2.6,1.9-4,2.6c-1.6,0.8-1.7,1.1-0.8,2.8c0,0.1,0.1,0.1,0.1,0.2c1,1.7,1.6,3.4,1.2,5.4
		c-0.1,0.3,0,0.5,0.2,0.7c0.9,1,3.1,0.8,3.7-0.4c0.3-0.6,0.7-0.7,1.3-0.3c0.9,0.6,1.9,0.5,2.7-0.1c0.3-0.3,0.7-0.7,0.5-1
		c-0.7-1.1,0.1-1.2,0.9-1.4c1.4-0.4,1.7-1,1.2-2.4c-0.3-0.8-0.8-1.6-1.3-2.3c-0.8-1.2-1.8-2.4-2-3.8C50.4,55.1,49.9,54.3,48.8,53.9z
		 M16.1,30.7c0.3-0.9,0.6-1.7,0.9-2.5c0.2-0.6,0.3-1.2-0.2-1.7c-0.5-0.5-1.3-0.5-1.9-0.3c-0.6,0.2-0.6,0.9-0.6,1.4
		c-0.1,1.3-0.2,2.6-0.3,3.8c-0.2,1.9-0.9,3.7-1.3,5.6c-0.3,1.2,0.1,2.1,1,2.8c1.1,0.9,2.5,1.3,3.9,1.5c1.4,0.2,2.4-1.2,2.1-2.5
		c-0.1-0.5,0-0.9,0.5-1.1c0.3-0.1,0.6-0.2,0.9-0.3c1.8-0.7,2.2-1.7,0.9-3.1c-0.7-0.8-0.9-1.5-0.2-2.4c0.5-0.6,0.2-1-0.5-1.2
		c-0.8-0.2-1.5-0.2-2.3,0C18,31,17,31,16.1,30.7z M54.1,43.3c-0.1-0.5-0.2-0.9-0.3-1.4c-0.1-0.8-0.4-1.5-1-2.1
		c-0.5-0.5-1.7-0.7-2.3-0.3c-0.7,0.5-0.7,1.2-0.4,1.8c0.4,1,1.1,1.7,2.3,1.9c-0.7,0.4-1.2,0.5-1.8,0.6c-0.6,0.1-1.2,0.4-1.6,0.9
		c-0.6,0.5-0.5,1.1,0.2,1.5c0.3,0.2,0.6,0.3,0.6,0.8c-0.1,0.4-0.4,0.5-0.7,0.6c-0.5,0.2-0.9,0.5-0.9,1.1c0,0.6,0.3,0.9,0.8,1.1
		c0.6,0.2,0.8,0.6,0.5,1.3c-0.5,1.2,0.5,2.6,1.8,2.5c0.9-0.1,1.8-0.3,2.6-1c2.3-2.3,2.7-5.1,2.3-8.1c-0.3-2.1-1.3-3.9-2.2-5.8
		c-0.6-1.3-0.6-1.4-1.8-0.6C54.2,39.2,54.9,41.1,54.1,43.3z M23.2,22.7c0-1.2,0-2,0-2.9c-0.1-1.6-0.4-3.2-1.3-4.7
		c-0.4-0.6-0.7-0.7-1.1,0c-0.2,0.3-0.2,0.5,0,0.8c0.3,0.4,0.4,0.9,0.5,1.4c0.3,1.6,0.2,3.2,0.1,4.8c-0.1,1.2-0.1,2.3,0.4,3.4
		c1.2,2.8,3.1,5.2,5.5,7.2c1.6,1.3,3.2,2.6,4.1,4.6c0.4,0.9,0.9,1.7,1.3,2.6c0.4,0.9,1.1,0.3,1.7,0.2c0.4,0,0-0.6-0.1-0.9
		c-0.2-0.7-0.6-1.3-1-1.9c-1.5-1.9-3.4-3.5-5.3-5.1C24.9,29.7,22.7,26.7,23.2,22.7z M16.2,42.6c-0.6,2.1-2.9,2.2-4.9,1.4
		c-0.3,0.7-0.2,1.3,0.5,1.7c1.1,0.6,2.2,0.7,3.4,0.6c0.4,0,0.9-0.3,1-0.6C16.4,44.6,16.7,43.6,16.2,42.6z M34,45.2
		c0.1,0.3,0.1,0.7,0.2,1.1c0.3,1.9,1,3.5,2.5,4.7c0.8,0.6,1-0.1,1.4-0.5c0.4-0.5,0.2-0.8-0.3-1.1c-1.6-1.1-2.9-2.4-2.9-4.5
		c0-0.4-0.2-0.5-0.5-0.5C34,44.5,34,44.8,34,45.2z M44.1,39.9c-1.2-0.4-3.1-0.5-4.8-0.2c-1,0.2-2.1,0.1-3,0.5
		c-1.2,0.5-1.2,0.6-0.3,1.4c0.3,0.3,0.5,0.3,0.8,0.1c0.3-0.3,0.7-0.4,1.2-0.6C39.9,40.6,42,40.3,44.1,39.9z M23.8,17.4
		c-0.3-1.9-0.1-3.8,0.6-5.6c0-0.1,0.2-0.4,0-0.5c-0.2-0.1-0.4,0-0.5,0.2c-0.6,0.7-1.2,1.4-1.8,2c-0.2,0.2-0.2,0.4,0,0.7
		C22.9,15.1,23.4,16.2,23.8,17.4z M46.6,39.5c0.7,0.1,1.4-0.2,2-0.4c2.3-1.1,4.5-2.6,7.1-3.2c0.1,0,0.2-0.1,0.3-0.1
		c0.1-0.1,0.3-0.3,0.2-0.5c-0.1-0.2-0.3-0.1-0.5,0c-0.9,0.7-2,0.7-3,0.9c-0.4,0.1-1-0.1-1.3,0.3C50,37.9,48.4,38.8,46.6,39.5z
		 M30.7,48.7c-0.1,0.3,0,0.6,0.3,0.5c0.3-0.1,0.9,0.1,0.9-0.6c-0.2-1.5,0.1-2.8,1-4c0.3-0.4-0.1-0.5-0.3-0.6
		c-0.3-0.2-0.5-0.2-0.6,0.2C31.5,45.6,31,47.1,30.7,48.7z M30.2,59.7c0.2,1.1,1.6,2,2.7,1.8c0.4-0.1,0.6-0.3,0.8-0.6
		c0.2-0.3,0.2-0.5-0.2-0.6C32.3,60.1,31.2,59.9,30.2,59.7z M12.7,40.9c-0.8,0.2-1.2,0.6-1.3,1.2c-0.1,0.4-0.1,0.7,0.3,1
		C12.5,44,14,44,15,43c0.3-0.2,0.7-0.6,0.4-0.9c-0.3-0.3-0.4,0.3-0.6,0.5c-0.7,0.6-1.7,0.7-2.4,0.2c-0.8-0.6-0.1-1.1,0.1-1.7
		C12.5,41.1,12.6,41.1,12.7,40.9z M35.4,42c-0.6-1-1.8-1.2-2.6-0.6c-0.2,0.2-0.3,0.3-0.2,0.6c0,0.2,0.2,0.2,0.4,0.2
		C33.7,41.9,34.5,42.1,35.4,42z M13.4,42.6c0.5,0,1-0.3,1.1-0.8c0-0.3-0.5-0.5-0.8-0.5c-0.5,0-1,0.2-1,0.8
		C12.6,42.6,13.2,42.5,13.4,42.6z M14.9,47.4c-0.6,0.6-1.1,3.2-0.7,3.8c0,0.1,0.1,0.1,0.2,0.1c0.2,0,0.2-0.1,0.2-0.2
		C14.3,49.9,14.8,48.7,14.9,47.4z M12.3,49.9c0.1,0,0.2,0.1,0.3,0.1c0.4-0.6,0.5-1.4,1-2c0,0-0.1-0.2-0.1-0.3
		c-0.1-0.1-0.3-0.1-0.4,0.1C12.8,48.5,12.5,49.2,12.3,49.9z M19.2,42.4c-1,0.2-1,0.4-0.6,1.5C18.7,43.3,18.9,42.9,19.2,42.4z
		 M17.3,43.9c0.3-0.4,0.4-0.8,0.5-1.2c-0.3-0.2-0.6-0.1-0.9,0C17,43.1,17.1,43.5,17.3,43.9z M35.4,43.2c-0.7-0.3-1.2-0.2-1.9-0.1
		C34.2,43.5,34.7,43.4,35.4,43.2z M14.5,46.9c-0.1-0.3-0.4-0.3-0.6-0.3c-0.2,0-0.3,0.1-0.3,0.3c0,0.3,0.2,0.4,0.4,0.4
		C14.2,47.3,14.4,47.2,14.5,46.9z"/>
	<path style="&st1;" d="M25.1,32.6c2,1.4,3.8,3,5.3,5c0.3,0.5,0.7,1,1,1.5c0.5,0.7,1.3,1.4,0.4,2.3c0.2,2.2-1.5,4-1.6,6.1
		c0,0.2-0.1,0.5-0.1,0.7c-0.2,1.4-0.1,1.5,1.4,1.7c0.1,0,0.1,0,0.2,0c1.5,0.1,1.5,0.1,1.3-1.4c-0.1-0.9,0-1.9,0.2-3
		c0.2,0.8,0.3,1.5,0.4,2.1c0.4,1.9,1.5,3.2,3.3,4c0.4,0.2,0.7,0.2,1-0.1c0.1-0.1,0.2-0.1,0.2-0.2c2.2-1.5,2.2-1.7,0.1-3.1
		c-1.2-0.9-2.1-2-2.5-3.5c-0.1-0.4,0-0.6,0.3-0.8c0.5-0.3,1-0.6,0.9-1.3c-0.1-0.4,0.4-0.5,0.6-0.6c0.8-0.2,1.6-0.2,2.3-0.4
		c1.4-0.3,2.9-0.4,4.3-0.8c0.8-0.2,1.7-0.4,2.5-0.3c0.6,1.1,1.1,2.2,1.4,3.4c-0.6,0.8-0.9,1.7-0.3,2.6c0.2,0.3-0.1,0.4-0.2,0.6
		c-1,1.2-0.8,2.5,0.4,3.5c0.4,0.3,0.7,2.2,0.4,2.7c-0.8,1.5-2.1,2.7-3.5,3.6c-4.8,3-9.9,3.2-15.2,1.5c-2.6-0.8-5.1-1.6-7.3-3.3
		c-3.1-2.4-4.1-5.4-3.2-9.2c0.3-1.1,0.4-2.4,0.5-3.5c0-0.4,0.1-0.6,0.4-0.9c0.8-0.7,1.3-1.4,1.1-2.5c-0.1-0.3,0.2-0.3,0.4-0.4
		c0.4-0.2,0.8-0.4,1.1-0.6c1.4-1,1.6-2.3,0.8-3.8c-0.2-0.3-0.5-0.5-0.4-0.9C23.8,33.2,24.5,32.9,25.1,32.6z M37.9,44.4
		c0.6,2.2,4.4,3.7,6.4,2.6C42,46.6,39.9,45.7,37.9,44.4z M23.3,39.8c0.3,1.1,1.4,2,3.1,2.4c0.9,0.2,1.6-0.4,2.3-0.8
		C26.7,41.4,24.9,40.7,23.3,39.8z M27.6,38c0-0.7-0.7-1.4-1.4-1.3c-0.7,0-1.4,0.8-1.4,1.5c0,0.7,0.6,1.2,1.4,1.1
		C27,39.2,27.6,38.7,27.6,38z M42.1,43.8c0,0.7,0.6,1.3,1.1,1.2c0.7-0.1,1-0.5,1.1-1.2c0-0.6-0.6-1.2-1.2-1.2
		C42.4,42.8,42.2,43.3,42.1,43.8z"/>
	<path style="&st2;" d="M55.5,33.6c0.7-1.1,1.3-2.2,1.2-3.6c-0.2-1.7-1.1-3-2.5-3.3c-0.3-0.1-0.6-0.2-0.8,0.2
		c2.1,0.5,2.4,3.3,1.8,4.9c-0.4,1.1-1.3,1.9-2.2,2.7c-0.2,0.1-0.4,0.5-0.7-0.1c-0.2-0.4-0.4,0.1-0.5,0.2c-0.9,1.2-2.1,2.1-3.4,2.9
		c-3,1.8-6.8,1.5-9.5-0.8c-0.3-0.3-0.6-0.7-0.7-1.1c-0.2-2.1,0-4.2,0.9-6.1c0.5,0.8,0.6,1.8,1.1,2.6c1.4,2.1,3.5,2.3,5.7,1.9
		c2.4-0.4,5.3-4,5.4-6.4c0-0.1,0-0.3,0-0.4c-0.1-2.1-1.2-3.7-2.6-5.2c-1.3-1.3-2.7-2-4.6-1.7c-0.8,0.1-1.2-0.3-1.6-0.9
		c-1-1.6-2.2-3-3.8-4c-2.3-1.5-4.6-1.3-6.8,0.1c-2.2,1.3-3.8,3.2-3.4,6c0.4,2.6,1.4,5,4.9,3.7c-0.6,2.4-2.5,3.5-5.2,3
		c-0.3-0.1-0.7-0.1-1-0.2c-3.2-1.1-3.6-2.6-3-5.4c0.7-3.2,2.1-6,3.6-8.9c0.3-0.5,0.7-0.8,1.1-1.1c-0.1-0.2-0.2-0.2-0.3-0.1
		c-0.3,0.1-0.7,0.5-0.9,0.2c-0.3-0.3,0.2-0.7,0.4-0.9c0.4-0.6,0.9-1.2,1.6-1.5c1.3-0.5,2.1-0.3,3,0.9c0.3,0.4,0.6,0.9,1,1.4
		c0.1-1.7-1.1-3.3-2.1-3.6c-1.2-0.4-2.9,0.1-3.9,1.3c-0.4,0.5-0.9,1.1-1.3,1.6c0-0.1,0.1-0.3-0.1-0.2c0,0.1,0.1,0.1,0.1,0.2
		c-0.7,1.9-0.7,4.1-1.9,5.9c0.2-2.7,0.4-5.4,2.4-7.5c0.9-1,2-1.7,3.4-1.6c1.6,0,3.2-0.3,4.7,0.7c0.6,0.4,0.7,0.6,0.5,1.3
		c1.4,0.1,2.8,0.1,4.2,0.4c2.9,0.5,5.4,2.1,7.7,3.7c1.8,1.3,3.1,2.9,4,4.9c0.8,1.7,1.8,3.2,2.7,4.7c-0.6,0.4-1.3,0.8-2,1.4
		c0.6,0.1,1-0.1,1.4-0.2c1.6-0.4,2.7,0.1,3.3,1.6c0.4,0.9,0.7,1.9,0.6,2.9C57.1,31.2,57,32.8,55.5,33.6
		C55.5,33.6,55.5,33.6,55.5,33.6z M52.4,33.9L52.4,33.9L52.4,33.9L52.4,33.9z"/>
	<path style="&st1;" d="M33.4,25c-3.5,1.3-4.5-1.1-4.9-3.7c-0.4-2.8,1.1-4.7,3.4-6c2.2-1.3,4.5-1.6,6.8-0.1c1.6,1.1,2.8,2.4,3.8,4
		c0.4,0.7,0.8,1.1,1.6,0.9c1.8-0.3,3.3,0.4,4.6,1.7c1.4,1.5,2.6,3,2.6,5.2c0,0.1,0,0.3,0,0.4c-0.1,2.4-3,6-5.4,6.4
		c-2.2,0.4-4.3,0.2-5.7-1.9c-0.5-0.8-0.6-1.8-1.1-2.6c0-0.3,0-0.6,0-1c-1.8,2.2-2.4,4.7-2,7.4c0.1,0.9,0.8,1.6,1.6,2.1
		c0.3,0.2,0.6,0.4,1,0.7c-1.7-0.2-3.2,0.2-4.6,1.2c-0.4-1-0.6-2-1.1-2.8c-0.8-1.5-2.1-2.5-3.3-3.7c-0.7-0.7-1.5-1.3-2.2-2
		c0.9-0.6,2.2-0.9,2.6-2.1c0.8-0.5,1.7-1,2.2-1.8c0.5-0.9,0.7-1.8,0.6-2.9C33.6,24.7,33.5,24.9,33.4,25z M34.7,18.5L34.7,18.5
		c-0.6,0.8-0.5,1.7,0.2,2.4c0.8,0.8,1.8,1,2.6,0.5c0.7-0.4,1.3-2,1-2.6c-0.1-0.3-0.2-0.6-0.6-0.7c-1.1-0.8-2-0.8-3,0
		C34.8,18.1,34.8,18.3,34.7,18.5z M44.1,24.4c-0.2-0.1-0.4,0-0.4,0.2c-0.5,0.3-0.6,0.9-0.9,1.4c-0.3,0.3-0.4,0.6,0,0.9l0,0
		c-0.1,0.6,0,1,0.6,1.4c0.9,0.6,2.2,0.5,2.8-0.3c0.8-1.2,0.7-2.6-0.3-3.5C45.3,24.1,44.7,23.7,44.1,24.4L44.1,24.4z M34.1,21.6
		c0.6,2.8,2.1,3.4,5.4,2.4c0.1,0.9-0.2,1.9,0.1,2.8c0.4,1,1.1,1.5,2,1.4c-1.8-1.1-1.2-2.9-1.5-4.6c0.5,0.1,0.9,0.2,1.3,0.3
		c0.6,0,1.3,0,1.6-0.8c0.4-1.3-0.5-3-1.8-3.3c-0.8-0.2-1.6,0-2.1,0.7c-0.5,0.7-0.3,1.4,0,2c0.1,0.3,0.4,0.4,0.4,0.8
		C37.5,23.6,35.5,24.1,34.1,21.6z M35.4,32.3c-1.3-0.3-1.9-1.2-2.6-2.2C32.8,31.8,33.8,32.7,35.4,32.3z M34.1,29
		c-0.3,1.6,0.5,2.1,2.5,1.6C35.6,30.2,34.4,30.3,34.1,29z"/>
	<path style="&st10;" d="M16.4,24.8c-0.9,0.4-1.1,0.3-1.1-0.7c-0.1-4.6,1.4-8.7,4-12.4c2-2.8,4.1-5.6,7-7.5c1.8-1.2,3.8-2.2,5.9-2.7
		c2.7-0.7,5.4-0.9,8.2-0.4c2.2,0.4,4.5,0.5,6.5,1.6c3.4,1.8,6.2,4.4,8.8,7.2c2.6,2.9,4.6,6,5.8,9.8c0.4,1.2,0.6,2.4,0.6,3.6
		c0,1.6,0,3.2,0,4.8c0,5-2.3,8.9-6,12c-0.3,0.2-0.4,0.3-0.5,0c0-0.1-0.1-0.1-0.1-0.2c-1-1.7-1-1.6,0.5-2.9c3.7-3.3,5.2-7.4,4.5-12.3
		c-1.2-7.8-6-13-12.2-17.3c-3-2-6.1-3.3-9.7-3.3c-3.5,0-6.9,0.5-9.9,2.3c-1.9,1.1-3.7,2.5-5.3,4.1c-2.5,2.5-4.5,5.4-6,8.6
		c-0.4,0.9-0.5,1.8-0.7,2.8C16.2,22.8,16.5,23.9,16.4,24.8z"/>
	<path style="&st2;" d="M42.7,65.9c-0.1,4.5-4,5.9-6.6,4.9c-1.1-0.4-2.2-0.8-3-1.6c-0.6-0.6-1-1.2-1.1-2c0-0.2,0.1-0.5-0.2-0.5
		c-0.3,0-0.3,0.3-0.4,0.5c-0.7,1.1-1.6,2-3,2.3c-1.8,0.4-4.6-1.1-5-2.8c-0.3-1.1,0.2-2.2,0.6-3.2c0.7-1.5,1.5-3,2.3-4.4
		c0.2-0.3,0.3-0.4,0.7-0.3c0.4,0.2,0.9,0.3,1.3,0.4c0.8,0.2,1.4,0.4,1.6,1.5c0.1,1.1,1.3,1.8,2.5,1.9c1,0,1.7-0.5,2-1.5
		c0.2-0.5,0.4-0.6,1-0.5c1.6,0.2,3.2,0.1,4.8-0.3c0.6-0.2,0.8,0,1,0.6c0.5,1.5,1.5,2.9,1.6,4.5C42.6,65.5,42.7,65.8,42.7,65.9z"/>
	<path style="&st2;" d="M48.8,53.9c1.1,0.4,1.6,1.2,1.9,2.4c0.3,1.4,1.2,2.6,2,3.8c0.5,0.7,1,1.4,1.3,2.3c0.5,1.4,0.2,2-1.2,2.4
		c-0.8,0.2-1.6,0.3-0.9,1.4c0.2,0.3-0.2,0.8-0.5,1c-0.8,0.6-1.8,0.7-2.7,0.1c-0.6-0.4-1-0.3-1.3,0.3c-0.6,1.1-2.8,1.3-3.7,0.4
		c-0.2-0.2-0.3-0.4-0.2-0.7c0.4-2-0.1-3.7-1.2-5.4c0-0.1-0.1-0.1-0.1-0.2c-0.9-1.6-0.8-2,0.8-2.8c1.4-0.7,2.9-1.4,4-2.6
		C47.8,55.8,48.4,54.9,48.8,53.9z"/>
	<path style="&st2;" d="M16.1,30.7C17,31,18,31,19,30.8c0.8-0.1,1.6-0.2,2.3,0c0.7,0.2,1,0.6,0.5,1.2c-0.7,0.9-0.5,1.6,0.2,2.4
		c1.2,1.5,0.9,2.5-0.9,3.1c-0.3,0.1-0.6,0.2-0.9,0.3c-0.4,0.2-0.6,0.6-0.5,1.1c0.4,1.4-0.7,2.7-2.1,2.5c-1.4-0.2-2.7-0.6-3.9-1.5
		c-0.9-0.8-1.3-1.7-1-2.8c0.4-1.9,1.1-3.7,1.3-5.6c0.1-1.3,0.2-2.6,0.3-3.8c0-0.6,0-1.2,0.6-1.4c0.6-0.2,1.3-0.2,1.9,0.3
		c0.5,0.5,0.4,1.1,0.2,1.7C16.7,29,16.4,29.8,16.1,30.7z"/>
	<path style="&st2;" d="M23,62.6c-0.2,1.1-0.7,2.1-0.6,3.2c0,0.6-0.5,0.6-0.9,0.5c-0.7-0.2-1.3-0.6-1.6-1.3c-0.3-0.7-0.7-1-1.4-0.5
		c-0.5,0.4-1,0.1-1.2-0.4c-0.4-1.1-1.1-1.2-2.1-1c-1.3,0.2-2.2-1-1.9-2.3c0.2-1.1,0.9-1.8,1.6-2.6c0.7-0.8,1.6-1.5,2.2-2.4
		c0.6-0.9,1.2-1.8,1.8-2.7c1,1.5,2.3,2.8,3.8,3.7c0.8,0.5,1.6,1,2.5,1.3c0.6,0.2,0.6,0.5,0.3,0.9C24.6,60.1,23.7,61.3,23,62.6
		c0-0.1,0-0.2-0.1-0.2c0,0-0.1,0-0.1,0.1C22.9,62.5,23,62.6,23,62.6z"/>
	<path style="&st2;" d="M54.1,43.3c0.9-2.2,0.1-4.1-2-5.1c1.2-0.7,1.2-0.7,1.8,0.6c0.9,1.9,1.9,3.7,2.2,5.8c0.5,3,0,5.8-2.3,8.1
		c-0.7,0.7-1.6,1-2.6,1c-1.3,0.1-2.3-1.2-1.8-2.5c0.3-0.7,0.1-1-0.5-1.3c-0.5-0.2-0.8-0.5-0.8-1.1c0-0.7,0.4-1,0.9-1.1
		c0.3-0.1,0.7-0.2,0.7-0.6c0.1-0.4-0.3-0.6-0.6-0.8c-0.7-0.4-0.7-1-0.2-1.5c0.5-0.4,1-0.7,1.6-0.9c0.6-0.1,1.2-0.3,1.8-0.6
		c-1.2-0.2-1.9-0.9-2.3-1.9c-0.3-0.7-0.3-1.4,0.4-1.8c0.6-0.4,1.8-0.3,2.3,0.3c0.5,0.6,0.8,1.3,1,2.1C53.9,42.4,54,42.8,54.1,43.3z"
		/>
	<path style="&st2;" d="M23.2,22.7c-0.5,4,1.7,7,4.7,9.7c1.8,1.6,3.7,3.2,5.3,5.1c0.5,0.6,0.8,1.2,1,1.9c0.1,0.3,0.4,0.8,0.1,0.9
		c-0.5,0-1.2,0.6-1.7-0.2c-0.4-0.9-0.9-1.7-1.3-2.6c-0.9-2-2.5-3.3-4.1-4.6c-2.4-2-4.2-4.4-5.5-7.2c-0.5-1.1-0.5-2.2-0.4-3.4
		c0.2-1.6,0.2-3.2-0.1-4.8c-0.1-0.5-0.2-1-0.5-1.4c-0.2-0.3-0.2-0.5,0-0.8c0.4-0.7,0.7-0.6,1.1,0c0.9,1.4,1.2,3,1.3,4.7
		C23.2,20.7,23.2,21.5,23.2,22.7z"/>
	<path style="&st5;" d="M16.6,46.8c0.7-0.2,1.2,0.1,1.2,0.8c-0.1,0.8-0.1,1.5,0.1,2.3c0.2,1.3-0.1,2-1.3,2.6
		c-1.8,0.9-3.6,0.9-5.3-0.2c-0.6-0.4-1-1-1.2-1.6c-0.4-1.4-0.4-2.8,0.1-4.2c0.9,0.4,1.6,0.9,2.6,1.1c-0.5,0.9-0.9,1.8-1,2.8
		c0,0.3-0.1,0.6,0,0.8c0.2,0.3,0.5,0.5,0.8,0.5c0.4,0,0.4-0.4,0.4-0.6c0.1-0.4,0.3-0.7,0.5-1.1c0,0.3,0,0.7,0,1c0,0.7,0.4,1.1,1.1,1
		c0.6-0.1,0.7-0.4,0.7-1.1c-0.1-1,0-2.1,0.2-3.1C15.6,47.3,16.4,47.3,16.6,46.8L16.6,46.8z"/>
	<path style="&st2;" d="M25.1,32.6c-0.7,0.3-1.3,0.7-2,0.8c-0.4-0.1-0.4-0.3-0.2-0.6c0.5-0.8,0.7-1.7,0-2.4c-0.7-0.8-1.7-1-2.7-0.8
		c-0.8,0.1-1.6,0.5-2.4,0.7c-0.2,0.1-0.5,0.2-0.7,0c-0.2-0.2,0-0.5,0.1-0.7c0.2-0.4,0.3-0.7,0.5-1.1c0.6-1,0.5-1.9-0.3-2.8
		c-0.4-0.4-0.3-0.6,0.1-0.9c0.9-0.7,1.7-1.5,2.9-2c-0.4,3.7,1.9,6.2,4,8.8C24.6,31.9,25,32.1,25.1,32.6z"/>
	<path style="&st5;" d="M16.2,42.6c0.6,1,0.2,2,0,3c-0.1,0.4-0.5,0.6-1,0.6c-1.2,0.1-2.3,0-3.4-0.6c-0.8-0.4-0.9-1-0.5-1.7
		C13.2,44.8,15.5,44.6,16.2,42.6z"/>
	<path style="&st2;" d="M34,45.2c0-0.5,0-0.7,0.4-0.7c0.3,0,0.5,0,0.5,0.5c0,2.1,1.3,3.4,2.9,4.5c0.5,0.3,0.7,0.6,0.3,1.1
		c-0.4,0.4-0.6,1.1-1.4,0.5c-1.5-1.2-2.3-2.8-2.5-4.7C34.1,45.9,34.1,45.5,34,45.2z"/>
	<path style="&st2;" d="M44.1,39.9c-2.1,0.3-4.2,0.7-6.2,1.2c-0.4,0.1-0.8,0.3-1.2,0.6c-0.3,0.2-0.5,0.2-0.8-0.1
		c-0.9-0.9-0.9-1,0.3-1.4c1-0.4,2-0.3,3-0.5C41.1,39.4,42.9,39.5,44.1,39.9z"/>
	<path style="&st2;" d="M48,44.1c-0.3-1.2-0.8-2.3-1.4-3.4c0.8-0.2,1.7-0.3,2.5-0.9c-0.1,1.4,0.4,2.5,1.5,3.4
		C49.6,43.3,48.8,43.6,48,44.1z"/>
	<path style="&st2;" d="M30.9,29.2c-0.4,1.2-1.6,1.5-2.6,2.1c-0.9-1-2.2-1.6-2.7-2.9l0,0C27.4,28.9,29.1,29.4,30.9,29.2z"/>
	<g>
		<path style="&st11;" d="M29.9,6.9c2.9-1.6,5.9-1.8,9.1-1.8c4.4,0.1,7.8,2.4,11.2,4.9c2.8,2.1,5.1,4.6,6.8,7.6
			c1.9,3.3,2.9,6.9,2.5,10.7c-0.1,1.1-0.4,2.2-1,3.2c0.2-1.2,0.1-2.4-0.1-3.5c-0.4-1.9-1.1-3.5-3.3-3.9c-0.4-0.1-0.4-0.4-0.6-0.7
			c-1.1-2.3-2.1-4.7-3.6-6.8c-1.5-2.3-3.8-3.6-6.1-4.9c-1.6-0.9-3.2-1.8-5-2.1c-1-0.1-1.9,0.1-2.9,0.2c-0.4,0-0.7,0-1-0.4
			c-0.8-1-1.8-1.8-3-2.1c-0.4-0.4-1-0.1-1.5-0.2C31,7,30.4,7.3,29.9,6.9z"/>
		<path style="&st11;" d="M20.6,21.3c-0.1,0.1-0.2,0.3-0.3,0.3c-1,0.4-1.9,0.9-2.6,1.7c-0.6-1.3,0.7-4.2,2.4-6.7
			c0.5,0.5,0.5,1.2,0.5,1.8C20.6,19.4,20.6,20.3,20.6,21.3z"/>
		<path style="&st11;" d="M23.8,17.4c-0.5-1.2-1-2.3-1.8-3.3c-0.2-0.2-0.2-0.4,0-0.7c0.6-0.7,1.2-1.4,1.8-2c0.1-0.2,0.3-0.3,0.5-0.2
			c0.3,0.1,0.1,0.3,0,0.5C23.8,13.6,23.6,15.5,23.8,17.4z"/>
	</g>
	<path style="&st2;" d="M46.6,39.5c1.8-0.7,3.4-1.6,4.6-3.1c0.3-0.4,0.9-0.2,1.3-0.3c1.1-0.2,2.1-0.2,3-0.9c0.2-0.1,0.4-0.2,0.5,0
		c0.1,0.2,0,0.4-0.2,0.5c-0.1,0.1-0.2,0.1-0.3,0.1c-2.6,0.6-4.7,2.1-7.1,3.2C48,39.3,47.3,39.7,46.6,39.5z"/>
	<path style="&st2;" d="M30.7,48.7c0.2-1.6,0.8-3.1,1.3-4.6c0.1-0.3,0.3-0.3,0.6-0.2c0.2,0.2,0.6,0.2,0.3,0.6c-0.8,1.2-1.1,2.6-1,4
		c0.1,0.7-0.5,0.5-0.9,0.6C30.7,49.3,30.6,49,30.7,48.7z"/>
	<path style="&st1;" d="M30.2,59.7c1.1,0.2,2.1,0.4,3.2,0.6c0.5,0.1,0.5,0.3,0.2,0.6c-0.2,0.3-0.4,0.5-0.8,0.6
		C31.8,61.7,30.4,60.8,30.2,59.7z"/>
	<path style="&st5;" d="M12.7,40.9c-0.1,0.1-0.1,0.2-0.2,0.2c-0.3,0.5-0.9,1.1-0.1,1.7c0.7,0.5,1.7,0.4,2.4-0.2
		c0.2-0.2,0.3-0.8,0.6-0.5c0.3,0.3-0.1,0.7-0.4,0.9C14,44,12.5,44,11.6,43.1c-0.3-0.3-0.3-0.7-0.3-1C11.5,41.5,11.9,41.1,12.7,40.9z
		"/>
	<path style="&st2;" d="M35.4,42c-0.8,0.1-1.7-0.1-2.5,0.2c-0.2,0-0.3,0-0.4-0.2c-0.1-0.2,0-0.4,0.2-0.6C33.6,40.8,34.7,41,35.4,42z
		"/>
	<path style="&st5;" d="M13.4,42.6c-0.3-0.1-0.8,0-0.7-0.5c0.1-0.5,0.6-0.7,1-0.8c0.3,0,0.8,0.2,0.8,0.5
		C14.4,42.4,14,42.6,13.4,42.6z"/>
	<path style="&st2;" d="M14.9,47.4c-0.1,1.3-0.6,2.5-0.3,3.7c0,0.1,0,0.3-0.2,0.2c-0.1,0-0.2-0.1-0.2-0.1
		C13.8,50.6,14.3,48,14.9,47.4z"/>
	<path style="&st2;" d="M54.6,34.3c-0.6,1.1-1.8,1-2.7,1.4C52.6,34.8,53.8,34.9,54.6,34.3L54.6,34.3z"/>
	<path style="&st2;" d="M12.3,49.9c0.2-0.7,0.5-1.4,0.7-2.1c0.1-0.2,0.2-0.2,0.4-0.1c0.1,0.1,0.2,0.3,0.1,0.3c-0.5,0.6-0.5,1.4-1,2
		C12.5,49.9,12.4,49.9,12.3,49.9z"/>
	<path style="&st2;" d="M11.4,46.4c0.4,0,0.9,0,1.3,0.1c0.2,0,0.6-0.1,0.4,0.4c-0.1,0.3-0.3,0.4-0.6,0.2
		C12.1,46.8,11.6,46.8,11.4,46.4C11.3,46.4,11.3,46.4,11.4,46.4z"/>
	<path style="&st4;" d="M62.2,28.1c0-1.6,0-3.2,0-4.8C62.4,24.9,62.4,26.5,62.2,28.1z"/>
	<path style="&st2;" d="M29.9,6.9C30.4,7.3,31,7,31.5,7.1c0.5,0.1,1-0.2,1.5,0.2c-1.2,0-2.4,0-3.6,0C29.5,7,29.7,7,29.9,6.9z"/>
	<path style="&st2;" d="M19.2,42.4c-0.2,0.5-0.4,1-0.6,1.5C18.1,42.7,18.2,42.6,19.2,42.4z"/>
	<path style="&st5;" d="M17.3,43.9c-0.1-0.4-0.3-0.8-0.4-1.2c0.3,0,0.6-0.1,0.9,0C17.7,43.1,17.6,43.5,17.3,43.9z"/>
	<path style="&st2;" d="M16.6,46.8c-0.5-0.3-0.8,0.5-1.3,0.2c0.2-0.4,0.6-0.7,0.9-0.8C16.6,46.2,16.5,46.6,16.6,46.8
		C16.6,46.8,16.6,46.8,16.6,46.8z"/>
	<path style="&st2;" d="M35.4,43.2c-0.8,0.2-1.2,0.3-1.9-0.1C34.2,42.9,34.7,42.9,35.4,43.2z"/>
	<path style="&st4;" d="M16.4,24.8c0.1-1-0.3-2,0.2-3C16.5,22.8,16.8,23.9,16.4,24.8z"/>
	<path style="&st2;" d="M20.6,21.3c0-1,0-1.9,0-2.9C20.9,19.4,20.9,20.3,20.6,21.3z"/>
	<path style="&st2;" d="M14.5,46.9c0,0.3-0.3,0.4-0.5,0.4c-0.2,0-0.4-0.1-0.4-0.4c0-0.2,0.1-0.3,0.3-0.3
		C14.1,46.6,14.3,46.7,14.5,46.9z"/>
	<path style="&st2;" d="M11.3,46.4c-0.4-0.1-0.7-0.3-0.9-0.7C10.9,45.7,11.1,46.1,11.3,46.4C11.3,46.4,11.3,46.4,11.3,46.4z"/>
	<path style="&st2;" d="M55.3,33.7c-0.1,0.5-0.3,0.6-0.8,0.6l0,0C54.8,34,55,33.8,55.3,33.7L55.3,33.7z"/>
	<path style="&st2;" d="M55.3,33.7c0.1-0.1,0.1-0.1,0.2-0.2c0,0,0,0,0,0C55.5,33.6,55.4,33.7,55.3,33.7
		C55.3,33.7,55.3,33.7,55.3,33.7z"/>
	<path style="&st2;" d="M25.7,28.5C25.6,28.4,25.6,28.4,25.7,28.5C25.6,28.4,25.6,28.4,25.7,28.5C25.7,28.4,25.7,28.4,25.7,28.5
		C25.7,28.5,25.7,28.5,25.7,28.5z"/>
	<path style="&st0;" d="M37.9,44.4c2,1.3,4.1,2.1,6.4,2.6C42.2,48.1,38.5,46.6,37.9,44.4z"/>
	<path style="&st0;" d="M23.3,39.8c1.7,0.9,3.4,1.6,5.4,1.5c-0.7,0.5-1.4,1.1-2.3,0.8C24.7,41.8,23.5,40.9,23.3,39.8z"/>
	<path style="&st0;" d="M27.6,38c0,0.7-0.6,1.3-1.5,1.3c-0.9,0-1.4-0.4-1.4-1.1c0-0.7,0.7-1.5,1.4-1.5C26.9,36.6,27.6,37.3,27.6,38z
		 M27,37.8c-0.1-0.4-0.3-0.7-0.8-0.7c-0.5,0-0.8,0.3-0.9,0.8c0,0.5,0.3,0.6,0.8,0.6C26.6,38.5,26.9,38.3,27,37.8z"/>
	<path style="&st0;" d="M42.1,43.8c0.1-0.5,0.3-1.1,1-1.1c0.6-0.1,1.3,0.6,1.2,1.2c0,0.7-0.4,1.1-1.1,1.2
		C42.7,45.1,42.1,44.5,42.1,43.8z M43.2,43.2c-0.4,0-0.4,0.3-0.4,0.5c0,0.2,0,0.5,0.4,0.6c0.3,0,0.4-0.2,0.4-0.5
		C43.6,43.5,43.5,43.3,43.2,43.2z"/>
	<path style="&st0;" d="M26.4,11.6c0-0.1-0.1-0.1-0.1-0.2C26.5,11.4,26.4,11.6,26.4,11.6C26.4,11.7,26.4,11.6,26.4,11.6z"/>
	<polygon style="&st0;" points="52.4,33.9 52.4,33.8 52.4,33.8 	"/>
	<path style="&st0;" d="M34.1,21.6c1.4,2.5,3.4,2,5.4,1.8c0-0.4-0.3-0.6-0.4-0.8c-0.3-0.7-0.6-1.4,0-2c0.5-0.7,1.3-0.8,2.1-0.7
		c1.3,0.3,2.3,2,1.8,3.3c-0.3,0.7-0.9,0.8-1.6,0.8c-0.4,0-0.8-0.1-1.3-0.3c0.2,1.6-0.4,3.5,1.5,4.6c-0.9,0.2-1.6-0.3-2-1.4
		c-0.3-0.9-0.1-1.9-0.1-2.8C36.2,25,34.7,24.4,34.1,21.6z M42,22.1c-0.2-0.8-0.5-1.1-1.1-1.2c-0.3,0-0.3,0.3-0.2,0.5
		C40.7,22.3,41.4,21.8,42,22.1z"/>
	<path style="&st0;" d="M34.9,18.1c1-0.8,2-0.8,3,0c0.6,1.8-0.3,3-2,2.7c-1-0.2-1.3-0.9-1.2-2.3c0,0,0,0,0,0
		C34.8,18.3,34.9,18.2,34.9,18.1z M36.7,17.8c-0.3,0-0.5,0.2-0.5,0.5c0,0.4,0.3,0.4,0.6,0.5c0.2,0,0.5-0.1,0.5-0.4
		C37.2,18,37,17.9,36.7,17.8z"/>
	<path style="&st0;" d="M42.7,26c0.3-0.5,0.4-1.1,0.9-1.4c0.1-0.1,0.3-0.1,0.4-0.2c0,0,0,0.1,0,0.1c1,0,1.7,0.5,1.8,1.3
		c0.1,0.7,0.1,1.6-0.8,1.9c-0.8,0.3-1.8,0-2.3-0.8c0,0,0,0,0,0C42.7,26.6,42.7,26.3,42.7,26z M44.3,25.8c0.3-0.1,0.4-0.2,0.5-0.5
		c0-0.4-0.3-0.5-0.5-0.5c-0.3,0-0.4,0.1-0.4,0.4C43.8,25.6,44,25.7,44.3,25.8z"/>
	<path style="&st5;" d="M42.7,26.9c0.5,0.8,1.5,1.1,2.3,0.8c0.9-0.4,0.9-1.2,0.8-1.9c-0.1-0.9-0.8-1.3-1.8-1.3
		c0.6-0.7,1.2-0.3,1.7,0.1c1,0.8,1.1,2.2,0.3,3.5c-0.6,0.8-1.9,0.9-2.8,0.3C42.8,27.9,42.6,27.5,42.7,26.9z"/>
	<path style="&st5;" d="M34.8,18.4c-0.1,1.4,0.3,2.1,1.2,2.3c1.6,0.3,2.5-0.9,2-2.7c0.4,0,0.5,0.4,0.6,0.7c0.3,0.7-0.3,2.2-1,2.6
		c-0.8,0.5-1.9,0.3-2.6-0.5C34.3,20.2,34.2,19.3,34.8,18.4z"/>
	<path style="&st0;" d="M35.4,32.3c-1.6,0.3-2.6-0.5-2.6-2.2C33.5,31.1,34.2,32,35.4,32.3z"/>
	<path style="&st0;" d="M34.1,29c0.3,1.3,1.5,1.2,2.5,1.6C34.6,31,33.8,30.5,34.1,29z"/>
	<path style="&st5;" d="M42.7,26c0,0.3,0,0.6,0,0.9C42.4,26.6,42.4,26.3,42.7,26z"/>
	<path style="&st5;" d="M34.9,18.1c-0.1,0.1-0.1,0.3-0.2,0.4C34.8,18.3,34.8,18.1,34.9,18.1z"/>
	<path style="&st5;" d="M44.1,24.4c-0.1,0.1-0.3,0.1-0.4,0.2C43.7,24.4,43.8,24.3,44.1,24.4z"/>
	<path style="&st0;" d="M23,62.6c-0.1-0.1-0.1-0.1-0.2-0.2c0,0,0.1,0,0.1-0.1C23,62.5,23,62.6,23,62.6C23,62.6,23,62.6,23,62.6z"/>
	<path style="&st1;" d="M27,37.8c-0.1,0.5-0.4,0.7-0.8,0.7c-0.4,0-0.8-0.1-0.8-0.6c0-0.5,0.4-0.8,0.9-0.8
		C26.6,37.1,26.9,37.4,27,37.8z"/>
	<path style="&st1;" d="M43.2,43.2c0.3,0.1,0.4,0.3,0.4,0.6c0,0.3-0.1,0.5-0.4,0.5c-0.3,0-0.4-0.3-0.4-0.6
		C42.8,43.5,42.8,43.2,43.2,43.2z"/>
	<path style="&st2;" d="M42,22.1c-0.5-0.4-1.2,0.1-1.3-0.7c0-0.2-0.1-0.5,0.2-0.5C41.4,21,41.7,21.3,42,22.1z"/>
	<path style="&st1;" d="M36.7,17.8c0.3,0.1,0.6,0.2,0.5,0.5c0,0.3-0.3,0.4-0.5,0.4c-0.2,0-0.6,0-0.6-0.5
		C36.1,17.9,36.4,17.8,36.7,17.8z"/>
	<path style="&st5;" d="M44.3,25.8c-0.3-0.1-0.5-0.2-0.5-0.5c0-0.3,0.2-0.5,0.4-0.4c0.3,0,0.6,0.1,0.5,0.5
		C44.8,25.6,44.6,25.7,44.3,25.8z"/>
</g>
</svg>
