<svg id="Layer_1" data-name="Layer 1" xmlns="http://www.w3.org/2000/svg" viewBox="0 0 204.01 72"><defs><style>.cls-1{fill:none;stroke:#323232;stroke-miterlimit:10;}.cls-2{fill:#323232;}.cls-3{fill:#2cc185;}</style></defs><title>words_logo_o</title><path class="cls-1" d="M73.19,37.58c.82-2.17,1.4-4,2.22-5.8A4.26,4.26,0,0,1,81,29.41c2.48.86,3.27,2.17,1.84,4.34-3.29,5-3.1,9.69.1,14.56,1,1.59,1.91,3.4-.67,4.67-2.37,1.16-5.22.6-6.33-1.59a65.73,65.73,0,0,0-3-6.09c-.12,1.69-.25,3.38-.35,5.07-.16,2.6-1.84,3.18-4.08,3.14s-3.61-1-3.62-3.36c0-9.46-.07-18.93,0-28.39a2.75,2.75,0,0,1,1.6-1.94,4.47,4.47,0,0,1,6,4c.23,2,.18,4.1.21,6.15,0,2.23,0,4.46.05,6.7C72.76,36.79,72.9,36.94,73.19,37.58Z"/><path class="cls-1" d="M35.25,50.91c-2.79,3-5.33,3.64-8.09,2.25-2.3-1.16-3.75-4.37-3.18-7.7,1-5.94,5.88-6.16,10.67-6.61a7.24,7.24,0,0,0-.23-2.13c-.25-.58-.89-1.45-1.29-1.42a2.35,2.35,0,0,0-1.8,1.19c-.6,2.31-2.18,1.93-3.79,1.61a3.2,3.2,0,0,1-2.91-3.58A5.59,5.59,0,0,1,26.13,31c3.52-2.84,7.67-2.75,11.77-1.56,3.43,1,4.61,4,4.79,7.1.28,5.08.17,10.18.11,15.27,0,.57-.81,1.59-1.26,1.6A14.54,14.54,0,0,1,37,52.8C36.28,52.59,35.83,51.57,35.25,50.91ZM34.88,43c-2.84.07-3.15,1.66-3,3.45.06.56.7,1.05,1.08,1.57.52-.4,1.36-.72,1.49-1.22A23.35,23.35,0,0,0,34.88,43Z"/><path class="cls-1" d="M10.58,30l-2.33-.14c-2.9-.19-3.94-1.23-4-3.93s1-3.77,4-3.84q6.62-.15,13.22,0c2.79.06,3.86,1.2,3.9,3.71s-1.09,3.84-3.87,4.05l-2.46.21V42.93c0,2.15,0,4.29,0,6.43-.08,3-1.16,4.06-4.06,4.14-3.14.09-4.31-.84-4.38-4-.12-5.45,0-10.9-.05-16.35Z"/><path class="cls-1" d="M46.71,45c2.47.87,4.38,3.52,8.15,1.28a35.13,35.13,0,0,0-3.9-2c-3.26-1.16-5.37-3.12-5.47-6.78-.09-3.4.95-6.24,4.2-7.72a9.61,9.61,0,0,1,10.19.82c2.46,1.81,2.21,5-.42,7.37a22.76,22.76,0,0,0-3.82-2.27c-.78-.28-1.86.23-2.81.38.6.61,1.15,1.27,1.8,1.82a4,4,0,0,0,1.25.46c4.92,1.79,6.48,4.25,5.8,9.13-.51,3.7-3.54,6.11-8.18,6.23a15.47,15.47,0,0,1-5-.69C44.64,51.79,43.86,48.1,46.71,45Z"/><path class="cls-2" d="M178.31,37.59c.67-1.81,1.31-3.64,2-5.43a4.18,4.18,0,0,1,4.88-2.87c3,.41,4.24,2.24,2.64,4.74-3.07,4.81-3,9.3.05,14,1.06,1.63,2.37,3.7-.67,5-2.67,1.18-5.34.34-6.53-2.29A32.89,32.89,0,0,0,177.81,45c0,1.54.06,3.09,0,4.62-.13,2.92-1.16,3.93-3.92,3.93s-3.87-.95-4-3.87,0-5.72,0-8.58V23.41c0-1.58-.39-3.33,2-3.66s4.37.25,5.35,2.55a9.78,9.78,0,0,1,.61,3.66c.07,3.83,0,7.67,0,11.51Z"/><path class="cls-2" d="M158.41,50.74a17.06,17.06,0,0,1-1.86,2c-3.22,2.49-7.94,1.22-8.86-2.69-.71-3-.61-6.18-.74-9.28-.1-2.59-.07-5.18,0-7.77.09-3,1.09-4,3.79-4,2.86,0,4,1,4.15,4,.13,3.75,0,7.5.11,11.25,0,1,.78,1.87,1.19,2.8.55-1,1.53-1.91,1.58-2.9.19-3.74,0-7.5.1-11.25,0-2.82,1-3.83,3.62-3.94,2.86-.12,4.3,1,4.35,3.86.11,6.25.07,12.5,0,18.75,0,.62-.68,1.77-1.05,1.77a18.21,18.21,0,0,1-4.82-.62C159.37,52.52,159,51.53,158.41,50.74Z"/><path class="cls-2" d="M131.92,32.37c.49-.64.8-1.07,1.13-1.48a5.91,5.91,0,0,1,6.08-2,4.75,4.75,0,0,1,4.06,4.45c.34,5.77.45,11.57.38,17.35,0,2.61-2.18,2.88-4.32,2.83s-3.53-1.07-3.54-3.41c0-3.93.07-7.86-.1-11.78,0-.91-.9-1.78-1.38-2.66-.53.9-1.47,1.79-1.51,2.72-.18,3.74,0,7.49-.1,11.24-.06,2.92-.93,3.79-3.59,3.88-3.08.11-4.34-.78-4.4-3.69-.14-6.25-.09-12.5,0-18.74,0-.61.73-1.71,1.12-1.71a14.51,14.51,0,0,1,4.55.69C131,30.34,131.3,31.46,131.92,32.37Z"/><path class="cls-2" d="M112.94,38.67a6.51,6.51,0,0,0-.27-1.79c-.26-.6-.79-1.52-1.18-1.51-.66,0-1.72.55-1.86,1.07-.72,2.64-2.52,2-4.26,1.58-2-.52-2.94-2.11-2.39-3.86a7.52,7.52,0,0,1,2.89-4.09c3.25-1.85,6.91-1.71,10.44-.57a6.1,6.1,0,0,1,4.32,5.63c.37,5.6.42,11.21.47,16.82a2.11,2.11,0,0,1-1.38,1.5,14.11,14.11,0,0,1-4.53-.64c-.71-.23-1.15-1.28-1.71-2-2.41,2.87-4.43,3.61-7.23,2.68-2.54-.85-3.89-3-4-6.29s1.2-6,4.13-7.09A51.16,51.16,0,0,1,112.94,38.67Zm.16,4.65-.81-.59c-.71.81-1.83,1.53-2,2.45s.58,2,.93,2.93A13.1,13.1,0,0,0,113,45.65,6,6,0,0,0,113.1,43.32Z"/><path class="cls-2" d="M88.79,30.15c-1-.1-1.69-.18-2.39-.22-3-.21-4-1.19-4-3.89s1-3.8,4-3.88c4.4-.11,8.8-.1,13.21,0,2.85.06,3.82,1.09,3.86,3.67,0,2.83-.88,4-3.74,4-2.13,0-2.52.86-2.49,2.73.1,5.44.09,10.89,0,16.34,0,3.41-1,4.49-3.86,4.63-3.41.17-4.53-.85-4.55-4.33,0-5.36,0-10.72,0-16.08Z"/><path class="cls-3" d="M73.19,37.58c.82-2.17,1.4-4,2.22-5.8A4.26,4.26,0,0,1,81,29.41c2.48.86,3.27,2.17,1.84,4.34-3.29,5-3.1,9.69.1,14.56,1,1.59,1.91,3.4-.67,4.67-2.37,1.16-5.22.6-6.33-1.59a65.73,65.73,0,0,0-3-6.09c-.12,1.69-.25,3.38-.35,5.07-.16,2.6-1.84,3.18-4.08,3.14s-3.61-1-3.62-3.36c0-9.46-.07-18.93,0-28.39a2.75,2.75,0,0,1,1.6-1.94,4.47,4.47,0,0,1,6,4c.23,2,.18,4.1.21,6.15,0,2.23,0,4.46.05,6.7C72.76,36.79,72.9,36.94,73.19,37.58Z"/><path class="cls-3" d="M35.25,50.91c-2.79,3-5.33,3.64-8.09,2.25-2.3-1.16-3.75-4.37-3.18-7.7,1-5.94,5.88-6.16,10.67-6.61a7.24,7.24,0,0,0-.23-2.13c-.25-.58-.89-1.45-1.29-1.42a2.35,2.35,0,0,0-1.8,1.19c-.6,2.31-2.18,1.93-3.79,1.61a3.2,3.2,0,0,1-2.91-3.58A5.59,5.59,0,0,1,26.13,31c3.52-2.84,7.67-2.75,11.77-1.56,3.43,1,4.61,4,4.79,7.1.28,5.08.17,10.18.11,15.27,0,.57-.81,1.59-1.26,1.6A14.54,14.54,0,0,1,37,52.8C36.28,52.59,35.83,51.57,35.25,50.91ZM34.88,43c-2.84.07-3.15,1.66-3,3.45.06.56.7,1.05,1.08,1.57.52-.4,1.36-.72,1.49-1.22A23.35,23.35,0,0,0,34.88,43Z"/><path class="cls-3" d="M10.58,30l-2.33-.14c-2.9-.19-3.94-1.23-4-3.93s1-3.77,4-3.84q6.62-.15,13.22,0c2.79.06,3.86,1.2,3.9,3.71s-1.09,3.84-3.87,4.05l-2.46.21V42.93c0,2.15,0,4.29,0,6.43-.08,3-1.16,4.06-4.06,4.14-3.14.09-4.31-.84-4.38-4-.12-5.45,0-10.9-.05-16.35Z"/><path class="cls-3" d="M46.71,45c2.47.87,4.38,3.52,8.15,1.28a35.13,35.13,0,0,0-3.9-2c-3.26-1.16-5.37-3.12-5.47-6.78-.09-3.4.95-6.24,4.2-7.72a9.61,9.61,0,0,1,10.19.82c2.46,1.81,2.21,5-.42,7.37a22.76,22.76,0,0,0-3.82-2.27c-.78-.28-1.86.23-2.81.38.6.61,1.15,1.27,1.8,1.82a4,4,0,0,0,1.25.46c4.92,1.79,6.48,4.25,5.8,9.13-.51,3.7-3.54,6.11-8.18,6.23a15.47,15.47,0,0,1-5-.69C44.64,51.79,43.86,48.1,46.71,45Z"/><path class="cls-2" d="M199.31,41.4c0,2.76.08,5.52,0,8.28-.11,3-1.18,3.93-4.2,3.88s-3.8-.91-3.83-3.9q-.07-8.28,0-16.57c0-3.06,1-4,3.68-4.1,3-.09,4.25,1.05,4.35,4.12C199.38,35.87,199.31,38.64,199.31,41.4Z"/><path class="cls-2" d="M195.51,18c2.77.12,4.27,1.85,4.16,4.77s-1.81,4.45-4.61,4.37-4.4-1.89-4.26-5C190.92,19.33,192.56,17.87,195.51,18Z"/></svg>