<?xml version="1.0" encoding="utf-8"?>
<!-- Generator: Adobe Illustrator 24.0.3, SVG Export Plug-In . SVG Version: 6.00 Build 0)  -->
<!DOCTYPE svg PUBLIC "-//W3C//DTD SVG 1.1//EN" "http://www.w3.org/Graphics/SVG/1.1/DTD/svg11.dtd" [
	<!ENTITY st0 "fill:#191716;">
	<!ENTITY st1 "fill:#F7E5C8;">
	<!ENTITY st2 "fill:#645344;">
	<!ENTITY st3 "fill:#E69905;">
	<!ENTITY st4 "fill:#B46E04;">
	<!ENTITY st5 "fill:#FEFEFE;">
	<!ENTITY st6 "fill:#EFFCEF;">
	<!ENTITY st7 "fill:#CCEDD2;">
	<!ENTITY st8 "fill:#94D3AC;">
	<!ENTITY st9 "fill:#655C56;">
	<!ENTITY st10 "fill:#DFD3C3;">
	<!ENTITY st11 "fill:#C7B198;">
	<!ENTITY st12 "fill:#323232;">
	<!ENTITY st13 "fill:#2CC185;">
	<!ENTITY st14 "fill:#26E196;">
	<!ENTITY st15 "fill:#43F6AE;">
	<!ENTITY st16 "fill:#614092;">
	<!ENTITY st17 "fill:#596E79;">
]>
<svg version="1.1" id="Layer_1" xmlns="http://www.w3.org/2000/svg" xmlns:xlink="http://www.w3.org/1999/xlink" x="0px" y="0px"
	 viewBox="0 0 204 72" style="enable-background:new 0 0 204 72;" xml:space="preserve">
<path style="&st12;" d="M178.3,37.6c0.7-1.8,1.3-3.6,2-5.4c0.9-2.2,2.5-3.2,4.9-2.9c3,0.4,4.2,2.2,2.6,4.7c-3.1,4.8-3,9.3,0,14
	c1.1,1.6,2.4,3.7-0.7,5c-2.7,1.2-5.3,0.3-6.5-2.3c-0.9-1.9-1.5-3.9-2.9-5.8c0,1.5,0.1,3.1,0,4.6c-0.1,2.9-1.2,3.9-3.9,3.9
	c-2.8,0-3.9-0.9-4-3.9c-0.1-2.9,0-5.7,0-8.6c0-5.9,0-11.8,0-17.7c0-1.6-0.4-3.3,2-3.7c2.4-0.3,4.4,0.2,5.4,2.5
	c0.5,1.1,0.6,2.4,0.6,3.7c0.1,3.8,0,7.7,0,11.5C178,37.5,178.1,37.6,178.3,37.6z"/>
<path style="&st13;" d="M72.8,37.6c0.8-2.2,1.4-4,2.2-5.8c1.1-2.4,3.3-3.2,5.6-2.4c2.5,0.9,3.3,2.2,1.8,4.3c-3.3,5-3.1,9.7,0.1,14.6
	c1,1.6,1.9,3.4-0.7,4.7c-2.4,1.2-5.2,0.6-6.3-1.6c-1-2-1.7-4.1-3-6.1c-0.1,1.7-0.3,3.4-0.4,5.1c-0.2,2.6-1.8,3.2-4.1,3.1
	c-2.3,0-3.6-1-3.6-3.4c0-9.5-0.1-18.9,0-28.4c0-0.7,0.9-1.7,1.6-1.9c2.9-1,5.6,0.8,6,4c0.2,2,0.2,4.1,0.2,6.1c0,2.2,0,4.5,0,6.7
	C72.4,36.8,72.5,37,72.8,37.6z"/>
<path style="&st12;" d="M158.4,50.7c-0.7,0.7-1.2,1.5-1.9,2c-3.2,2.5-7.9,1.2-8.9-2.7c-0.7-3-0.6-6.2-0.7-9.3
	c-0.1-2.6-0.1-5.2,0-7.8c0.1-3,1.1-4,3.8-4.1c2.9,0,4.1,1,4.2,4c0.1,3.7,0,7.5,0.1,11.2c0,0.9,0.8,1.9,1.2,2.8
	c0.6-1,1.5-1.9,1.6-2.9c0.2-3.7,0-7.5,0.1-11.2c0-2.8,1-3.8,3.6-3.9c2.9-0.1,4.3,1,4.4,3.9c0.1,6.2,0.1,12.5,0,18.8
	c0,0.6-0.7,1.8-1,1.8c-1.6,0-3.3-0.2-4.8-0.6C159.4,52.5,159,51.5,158.4,50.7z"/>
<path style="&st12;" d="M131.9,32.4c0.5-0.6,0.8-1.1,1.1-1.5c1.6-1.9,3.7-2.4,6.1-2c2.4,0.5,3.9,2.2,4.1,4.5
	c0.3,5.8,0.4,11.6,0.4,17.4c0,2.6-2.2,2.9-4.3,2.8c-2.3-0.1-3.5-1.1-3.5-3.4c0-3.9,0.1-7.9-0.1-11.8c0-0.9-0.9-1.8-1.4-2.7
	c-0.5,0.9-1.5,1.8-1.5,2.7c-0.2,3.7,0,7.5-0.1,11.2c-0.1,2.9-0.9,3.8-3.6,3.9c-3.1,0.1-4.3-0.8-4.4-3.7c-0.1-6.2-0.1-12.5,0-18.7
	c0-0.6,0.7-1.7,1.1-1.7c1.5,0,3.1,0.2,4.5,0.7C131,30.3,131.3,31.5,131.9,32.4z"/>
<path style="&st13;" d="M34.9,51c-2.8,2.9-5.3,3.6-8.1,2.2c-2.3-1.2-3.7-4.4-3.2-7.7c1-5.9,5.9-6.2,10.7-6.6c-0.1-0.8,0-1.5-0.2-2.1
	c-0.3-0.6-0.9-1.5-1.3-1.4c-0.7,0.1-1.7,0.6-1.8,1.2c-0.6,2.3-2.2,1.9-3.8,1.6c-2-0.4-3.1-1.7-2.9-3.6c0.1-1.2,0.6-2.8,1.5-3.6
	c3.5-2.8,7.7-2.8,11.8-1.6c3.4,1,4.6,4,4.8,7.1c0.3,5.1,0.2,10.2,0.1,15.3c0,0.6-0.8,1.6-1.3,1.6c-1.5,0-3.1-0.1-4.6-0.6
	C35.9,52.6,35.5,51.6,34.9,51z M34.5,43.1c-2.8,0.1-3.2,1.7-3,3.4c0.1,0.6,0.7,1,1.1,1.6c0.5-0.4,1.4-0.7,1.5-1.2
	C34.4,45.7,34.4,44.5,34.5,43.1z"/>
<path style="&st12;" d="M112.9,38.7c-0.1-0.6,0-1.3-0.3-1.8c-0.3-0.6-0.8-1.5-1.2-1.5c-0.7,0-1.7,0.6-1.9,1.1
	c-0.7,2.6-2.5,2-4.3,1.6c-2-0.5-2.9-2.1-2.4-3.9c0.5-1.5,1.5-3.3,2.9-4.1c3.3-1.8,6.9-1.7,10.4-0.6c2.7,0.9,4.2,3,4.3,5.6
	c0.4,5.6,0.4,11.2,0.5,16.8c0,0.5-0.9,1.5-1.4,1.5c-1.5,0-3.1-0.2-4.5-0.6c-0.7-0.2-1.1-1.3-1.7-2c-2.4,2.9-4.4,3.6-7.2,2.7
	c-2.5-0.8-3.9-3-4-6.3c-0.1-3.5,1.2-6,4.1-7.1C108.4,39.4,110.7,39.2,112.9,38.7z M113.1,43.3c-0.3-0.2-0.5-0.4-0.8-0.6
	c-0.7,0.8-1.8,1.5-2,2.4c-0.2,0.9,0.6,1.9,0.9,2.9c0.6-0.8,1.4-1.5,1.9-2.5C113.3,45,113.1,44.1,113.1,43.3z"/>
<path style="&st13;" d="M10.2,30.1C9.1,30,8.5,30,7.9,29.9c-2.9-0.2-3.9-1.2-4-3.9c0-2.6,1-3.8,4-3.8c4.4-0.1,8.8-0.1,13.2,0
	c2.8,0.1,3.9,1.2,3.9,3.7c0,2.7-1.1,3.8-3.9,4c-0.7,0.1-1.4,0.1-2.5,0.2c0,4.3,0,8.6,0,12.9c0,2.1,0,4.3,0,6.4
	c-0.1,3-1.2,4.1-4.1,4.1c-3.1,0.1-4.3-0.8-4.4-4c-0.1-5.4,0-10.9-0.1-16.3C10.2,32.2,10.2,31.3,10.2,30.1z"/>
<path style="&st12;" d="M88.8,30.1c-1-0.1-1.7-0.2-2.4-0.2c-3-0.2-4-1.2-4-3.9c0-2.6,1-3.8,4-3.9c4.4-0.1,8.8-0.1,13.2,0
	c2.9,0.1,3.8,1.1,3.9,3.7c0,2.8-0.9,4-3.7,4c-2.1,0-2.5,0.9-2.5,2.7c0.1,5.4,0.1,10.9,0,16.3c0,3.4-1,4.5-3.9,4.6
	c-3.4,0.2-4.5-0.8-4.6-4.3c0-5.4,0-10.7,0-16.1C88.8,32.2,88.8,31.2,88.8,30.1z"/>
<path style="&st13;" d="M46.3,45c2.5,0.9,4.4,3.5,8.1,1.3c-1.7-0.9-2.7-1.6-3.9-2c-3.3-1.2-5.4-3.1-5.5-6.8
	c-0.1-3.4,0.9-6.2,4.2-7.7c3.5-1.6,7-1.5,10.2,0.8c2.5,1.8,2.2,5-0.4,7.4c-1.2-0.8-2.4-1.8-3.8-2.3c-0.8-0.3-1.9,0.2-2.8,0.4
	c0.6,0.6,1.1,1.3,1.8,1.8c0.3,0.3,0.8,0.3,1.3,0.5c4.9,1.8,6.5,4.2,5.8,9.1c-0.5,3.7-3.5,6.1-8.2,6.2c-1.7,0-3.4-0.2-5-0.7
	C44.3,51.8,43.5,48.2,46.3,45z"/>
<path style="&st12;" d="M199.3,41.4c0,2.8,0.1,5.5,0,8.3c-0.1,3-1.2,3.9-4.2,3.9c-2.9-0.1-3.8-0.9-3.8-3.9c-0.1-5.5-0.1-11,0-16.6
	c0-3.1,1-4,3.7-4.1c3-0.1,4.3,1,4.4,4.1C199.4,35.9,199.3,38.6,199.3,41.4z"/>
<path style="&st12;" d="M195.5,18c2.8,0.1,4.3,1.8,4.2,4.8c-0.1,2.8-1.8,4.5-4.6,4.4c-2.8-0.1-4.4-1.9-4.3-5
	C190.9,19.3,192.6,17.9,195.5,18z"/>
</svg>
